<svg width="72" height="72" viewBox="0 0 72 72" fill="none" xmlns="http://www.w3.org/2000/svg">
<g id="fi_1827375">
<path id="Vector" d="M51.75 6.00019H47.9998V2.99982C47.9998 1.34418 46.6589 0 45 0C43.3411 0 42.0002 1.34418 42.0002 2.99982V6.00019H18V2.99982C18 1.34418 16.6591 0 15.0002 0C13.3413 0 11.9998 1.34418 11.9998 2.99982V6.00019H8.25019C3.6991 6.00019 0 9.69873 0 14.2498V47.9998C0 52.9618 4.03803 56.9998 9 56.9998H24.0002C25.6591 56.9998 27 55.6562 27 54C27 52.3438 25.6591 51.0002 24.0002 51.0002H9C7.34381 51.0002 6.00018 49.6533 6.00018 47.9998V24.0002H54C54 25.6558 55.3409 27 56.9998 27C58.6588 27 60.0002 25.6558 60.0002 24.0002V14.2498C60.0002 9.69873 56.3011 6.00019 51.75 6.00019Z" fill="#16B364"/>
<path id="Vector_2" d="M52.4996 33C41.7479 33 33 41.7479 33 52.4996C33 63.252 41.7479 71.9998 52.4996 71.9998C63.252 71.9998 71.9998 63.252 71.9998 52.4996C71.9998 41.7479 63.252 33 52.4996 33ZM61.5178 49.2147L51.768 60.4647C51.2219 61.0948 50.4386 61.4667 49.608 61.4996C49.5718 61.4996 49.5361 61.4996 49.4998 61.4996C48.705 61.4996 47.9431 61.1849 47.3789 60.6207L42.1291 55.3709C40.9558 54.1976 40.9558 52.3019 42.1291 51.1291C43.3019 49.9558 45.1976 49.9558 46.3709 51.1291L49.3438 54.102L56.9821 45.2877C58.0681 44.0336 59.9638 43.905 61.2151 44.985C62.4659 46.0677 62.601 47.9639 61.5178 49.2147Z" fill="#16B364"/>
</g>
</svg>
