<svg width="96" height="96" viewBox="0 0 96 96" fill="none" xmlns="http://www.w3.org/2000/svg">
<g id="fi_2312493" clip-path="url(#clip0_1685_20594)">
<path id="Vector" d="M18 25V7C18 5.96 18.12 4.96 18.4 4H7C3.16 4 0 7.16 0 11V29C0 32.84 3.16 36 7 36H8.48L13.6 42.8C14.16 43.52 15 43.96 15.88 44H16C16.88 44 17.68 43.64 18.24 42.96L24.24 36.12C20.52 33.8 18 29.68 18 25Z" fill="#FFC107"/>
<path id="Vector_2" d="M88.9998 4H77.5998C77.8798 4.96 77.9998 5.96 77.9998 7V25C77.9998 29.68 75.4798 33.8 71.7598 36.12L77.7598 42.96C78.3198 43.64 79.1198 44 79.9998 44H80.1198C80.9998 43.96 81.8398 43.52 82.3998 42.8L87.4798 36H88.9998C92.8398 36 95.9998 32.84 95.9998 29V11C95.9998 7.16 92.8398 4 88.9998 4Z" fill="#FFC107"/>
<path id="Vector_3" d="M48 40C47.964 40 47.924 40 47.888 40C46.984 39.964 46.144 39.524 45.6 38.8L40.5 32H31C27.14 32 24 28.86 24 25V7C24 3.14 27.14 0 31 0H65C68.86 0 72 3.14 72 7V25C72 28.86 68.86 32 65 32H56.36L50.256 38.976C49.688 39.628 48.864 40 48 40Z" fill="#03A9F4"/>
<g id="Group">
<path id="Vector_4" d="M16 68C20.4183 68 24 64.4183 24 60C24 55.5817 20.4183 52 16 52C11.5817 52 8 55.5817 8 60C8 64.4183 11.5817 68 16 68Z" fill="#4CAF50"/>
<path id="Vector_5" d="M26.68 73.6C22.64 76.64 20 81.52 20 87V88H3C1.36 88 0 86.64 0 85V83C0 76.92 4.92 72 11 72H21C23.08 72 25.04 72.6 26.68 73.6Z" fill="#4CAF50"/>
<path id="Vector_6" d="M80 68C84.4183 68 88 64.4183 88 60C88 55.5817 84.4183 52 80 52C75.5817 52 72 55.5817 72 60C72 64.4183 75.5817 68 80 68Z" fill="#4CAF50"/>
<path id="Vector_7" d="M96.0003 83V85C96.0003 86.64 94.6403 88 93.0003 88H76.0003V87C76.0003 81.52 73.3603 76.64 69.3203 73.6C70.9603 72.6 72.9203 72 75.0003 72H85.0003C91.0803 72 96.0003 76.92 96.0003 83Z" fill="#4CAF50"/>
</g>
<path id="Vector_8" d="M48 70C54.6274 70 60 64.6274 60 58C60 51.3726 54.6274 46 48 46C41.3726 46 36 51.3726 36 58C36 64.6274 41.3726 70 48 70Z" fill="#2196F3"/>
<path id="Vector_9" d="M59 76H37C30.932 76 26 80.932 26 87V93C26 94.656 27.344 96 29 96H67C68.656 96 70 94.656 70 93V87C70 80.932 65.068 76 59 76Z" fill="#2196F3"/>
</g>
<defs>
<clipPath id="clip0_1685_20594">
<rect width="96" height="96" fill="white"/>
</clipPath>
</defs>
</svg>
