<svg width="81" height="80" viewBox="0 0 81 80" fill="none" xmlns="http://www.w3.org/2000/svg">
<g id="fi_2311942" clip-path="url(#clip0_519_845)">
<path id="Vector" d="M65.5 80H15.5C7.215 80 0.5 73.285 0.5 65V15C0.5 6.715 7.215 0 15.5 0H65.5C73.785 0 80.5 6.715 80.5 15V65C80.5 73.285 73.785 80 65.5 80Z" fill="#E3F8FA"/>
<g id="Group">
<path id="Vector_2" d="M26.7495 29.1675C25.8295 29.1675 25.082 28.42 25.082 27.5V21.6675C25.082 20.745 25.8295 20 26.7495 20C27.6695 20 28.417 20.7475 28.417 21.6675V27.5C28.417 28.42 27.6695 29.1675 26.7495 29.1675Z" fill="#8CE1EB"/>
<path id="Vector_3" d="M34.6675 29.1675C33.745 29.1675 33 28.42 33 27.5V21.6675C33 20.745 33.745 20 34.6675 20C35.5875 20 36.335 20.7475 36.335 21.6675V27.5C36.3325 28.42 35.5875 29.1675 34.6675 29.1675Z" fill="#8CE1EB"/>
<path id="Vector_4" d="M42.5816 29.1675C41.6616 29.1675 40.9141 28.42 40.9141 27.5V21.6675C40.9166 20.745 41.6616 20 42.5816 20C43.5016 20 44.2491 20.745 44.2491 21.6675V27.5C44.2491 28.42 43.5041 29.1675 42.5816 29.1675Z" fill="#8CE1EB"/>
</g>
<path id="Vector_5" d="M44.25 23.75H25.0825C22.55 23.75 20.5 25.8 20.5 28.3325V50.415C20.5 52.95 22.55 55 25.0825 55H36.065C35.165 53.1 34.665 50.9825 34.665 48.75C34.665 46.1825 35.3325 43.7675 36.515 41.6675H27.165C26.25 41.6675 25.5 40.9175 25.5 40C25.5 39.0825 26.25 38.3325 27.1675 38.3325H38.835C38.9025 38.3325 38.985 38.3325 39.0525 38.35C41.585 35.85 45.035 34.2825 48.835 34.1825V28.3325C48.8325 25.8 46.7825 23.75 44.25 23.75ZM33.8325 35H27.165C26.25 35 25.5 34.25 25.5 33.3325C25.5 32.415 26.25 31.665 27.1675 31.665H33.835C34.7525 31.665 35.5025 32.415 35.5025 33.3325C35.5 34.25 34.75 35 33.8325 35Z" fill="#26C6DA"/>
<path id="Vector_6" d="M49.25 37.5C43.0475 37.5 38 42.5475 38 48.75C38 54.9525 43.0475 60 49.25 60C55.4525 60 60.5 54.9525 60.5 48.75C60.5 42.5475 55.4525 37.5 49.25 37.5ZM53.8325 50.4175H50.915V53.335C50.915 54.255 50.1675 55.0025 49.2475 55.0025C48.3275 55.0025 47.58 54.255 47.58 53.335V50.4175H44.6625C43.7475 50.4175 43 49.67 43 48.75C43 47.83 43.7475 47.0825 44.6675 47.0825H47.585V44.165C47.585 43.245 48.3325 42.4975 49.2525 42.4975C50.1725 42.4975 50.92 43.245 50.92 44.165V47.0825H53.8375C54.7575 47.0825 55.505 47.83 55.505 48.75C55.505 49.67 54.755 50.4175 53.8325 50.4175Z" fill="#8CE1EB"/>
</g>
<defs>
<clipPath id="clip0_519_845">
<rect width="80" height="80" fill="white" transform="translate(0.5)"/>
</clipPath>
</defs>
</svg>
