<svg width="20" height="20" viewBox="0 0 20 20" fill="none" xmlns="http://www.w3.org/2000/svg">
<g id="fi_9967681">
<g id="Layer 2">
<path id="Vector" d="M15.8335 7.98262L13.6918 8.51595L11.0168 5.18262C10.8997 5.03663 10.7512 4.9188 10.5825 4.83784C10.4137 4.75688 10.229 4.71484 10.0418 4.71484C9.85462 4.71484 9.66984 4.75688 9.50109 4.83784C9.33233 4.9188 9.18392 5.03663 9.06679 5.18262L6.39179 8.51595L4.20846 7.98262C3.99921 7.93254 3.78063 7.93695 3.57357 7.99542C3.36652 8.05389 3.17792 8.16448 3.02578 8.31661C2.87365 8.46875 2.76306 8.65735 2.70459 8.8644C2.64612 9.07146 2.64171 9.29004 2.69179 9.49929L4.16679 14.6826C4.2172 14.8629 4.32682 15.0209 4.47799 15.1313C4.62916 15.2416 4.81308 15.2979 5.00012 15.291H15.0001C15.1872 15.2979 15.3711 15.2416 15.5223 15.1313C15.6734 15.0209 15.783 14.8629 15.8335 14.6826L17.3168 9.49929C17.3647 9.29337 17.3599 9.07871 17.3029 8.87512C17.2459 8.67154 17.1386 8.48559 16.9908 8.33445C16.8429 8.18331 16.6594 8.07184 16.4572 8.01035C16.2549 7.94886 16.0404 7.93932 15.8335 7.98262Z" fill="currentColor"/>
<path id="Vector_2" d="M2.29167 7.08333C2.86696 7.08333 3.33333 6.61696 3.33333 6.04167C3.33333 5.46637 2.86696 5 2.29167 5C1.71637 5 1.25 5.46637 1.25 6.04167C1.25 6.61696 1.71637 7.08333 2.29167 7.08333Z" fill="currentColor"/>
<path id="Vector_3" d="M17.7084 7.08333C18.2837 7.08333 18.7501 6.61696 18.7501 6.04167C18.7501 5.46637 18.2837 5 17.7084 5C17.1331 5 16.6667 5.46637 16.6667 6.04167C16.6667 6.61696 17.1331 7.08333 17.7084 7.08333Z" fill="currentColor"/>
<path id="Vector_4" d="M9.99992 3.54134C10.5752 3.54134 11.0416 3.07497 11.0416 2.49967C11.0416 1.92438 10.5752 1.45801 9.99992 1.45801C9.42462 1.45801 8.95825 1.92438 8.95825 2.49967C8.95825 3.07497 9.42462 3.54134 9.99992 3.54134Z" fill="currentColor"/>
<path id="Vector_5" d="M15.0001 18.3327H5.00008C4.77907 18.3327 4.56711 18.2449 4.41083 18.0886C4.25455 17.9323 4.16675 17.7204 4.16675 17.4993C4.16675 17.2783 4.25455 17.0664 4.41083 16.9101C4.56711 16.7538 4.77907 16.666 5.00008 16.666H15.0001C15.2211 16.666 15.4331 16.7538 15.5893 16.9101C15.7456 17.0664 15.8334 17.2783 15.8334 17.4993C15.8334 17.7204 15.7456 17.9323 15.5893 18.0886C15.4331 18.2449 15.2211 18.3327 15.0001 18.3327Z" fill="currentColor"/>
</g>
</g>
</svg>
