<svg width="25" height="24" viewBox="0 0 25 24" fill="none" xmlns="http://www.w3.org/2000/svg">
<path d="M21.75 10.9V4.1C21.75 2.6 21.11 2 19.52 2H15.48C13.89 2 13.25 2.6 13.25 4.1V10.9C13.25 12.4 13.89 13 15.48 13H19.52C21.11 13 21.75 12.4 21.75 10.9Z" fill="#98A2B3"/>
<path d="M11.25 13.1V19.9C11.25 21.4 10.61 22 9.02 22H4.98C3.39 22 2.75 21.4 2.75 19.9V13.1C2.75 11.6 3.39 11 4.98 11H9.02C10.61 11 11.25 11.6 11.25 13.1Z" fill="#98A2B3"/>
<path d="M21.75 19.9V17.1C21.75 15.6 21.11 15 19.52 15H15.48C13.89 15 13.25 15.6 13.25 17.1V19.9C13.25 21.4 13.89 22 15.48 22H19.52C21.11 22 21.75 21.4 21.75 19.9Z" fill="#98A2B3"/>
<path d="M11.25 6.9V4.1C11.25 2.6 10.61 2 9.02 2H4.98C3.39 2 2.75 2.6 2.75 4.1V6.9C2.75 8.4 3.39 9 4.98 9H9.02C10.61 9 11.25 8.4 11.25 6.9Z" fill="#98A2B3"/>
</svg>
