<svg width="48" height="48" viewBox="0 0 48 48" fill="none" xmlns="http://www.w3.org/2000/svg">
<g id="fi_5011708">
<path id="Vector" d="M23.9996 3.00001C20.3877 2.99852 16.8365 3.92919 13.6896 5.70199C10.5427 7.47478 7.90655 10.0297 6.03616 13.1196C4.16577 16.2095 3.12446 19.7298 3.01294 23.34C2.90142 26.9502 3.72348 30.5281 5.39959 33.7275L3.04459 43.1371C2.98945 43.3581 2.9854 43.5889 3.03274 43.8117C3.08008 44.0346 3.17757 44.2438 3.31782 44.4233C3.45806 44.6029 3.63737 44.7482 3.84214 44.8481C4.0469 44.948 4.27174 45 4.49959 45.0001C4.62249 45.0003 4.74494 44.9852 4.86409 44.9551L14.2721 42.6C17.0938 44.079 20.2151 44.8966 23.3996 44.9908C26.584 45.0851 29.7482 44.4536 32.6525 43.1441C35.5567 41.8347 38.125 39.8816 40.1629 37.4327C42.2007 34.9839 43.6547 32.1035 44.4146 29.0096C45.1746 25.9157 45.2207 22.6895 44.5495 19.5752C43.8782 16.4609 42.5071 13.5401 40.5401 11.034C38.5731 8.52795 36.0616 6.50227 33.1959 5.11035C30.3303 3.71844 27.1854 2.99678 23.9996 3.00001ZM23.9996 42C20.9205 41.9976 17.8936 41.2054 15.2081 39.699C14.9841 39.5733 14.7315 39.5072 14.4746 39.507C14.3517 39.5067 14.2292 39.5218 14.1101 39.552L6.56209 41.439L8.44909 33.8895C8.54068 33.5183 8.48702 33.1261 8.29909 32.793C6.36831 29.3443 5.62634 25.3558 6.18772 21.4434C6.7491 17.531 8.58261 13.9122 11.4052 11.1455C14.2279 8.37872 17.8827 6.61795 21.8055 6.13493C25.7283 5.65191 29.7011 6.47349 33.1106 8.47286C36.5201 10.4722 39.1767 13.5382 40.6704 17.1976C42.1641 20.8569 42.4118 24.9062 41.3753 28.7203C40.3388 32.5345 38.0757 35.9014 34.9354 38.3015C31.7951 40.7016 27.9521 42.0013 23.9996 42ZM32.9996 18H29.6711L28.8296 14.637C28.7486 14.3124 28.5614 14.0241 28.2978 13.8181C28.0341 13.6121 27.7092 13.5001 27.3746 13.5H20.6246C20.29 13.5001 19.965 13.6121 19.7014 13.8181C19.4378 14.0241 19.2506 14.3124 19.1696 14.637L18.3281 18H14.9996C14.6018 18 14.2202 18.1581 13.9389 18.4394C13.6576 18.7207 13.4996 19.1022 13.4996 19.5C13.4996 19.8979 13.6576 20.2794 13.9389 20.5607C14.2202 20.842 14.6018 21 14.9996 21H15.1931L16.8881 33.207C16.9381 33.5657 17.1161 33.8942 17.3893 34.1318C17.6625 34.3695 18.0125 34.5002 18.3746 34.5H29.6246C29.9867 34.5002 30.3367 34.3695 30.6099 34.1318C30.8831 33.8942 31.0611 33.5657 31.1111 33.207L32.8061 21H32.9996C33.3974 21 33.779 20.842 34.0603 20.5607C34.3416 20.2794 34.4996 19.8979 34.4996 19.5C34.4996 19.1022 34.3416 18.7207 34.0603 18.4394C33.779 18.1581 33.3974 18 32.9996 18ZM21.7961 16.5H26.2031L26.5781 18H21.4211L21.7961 16.5ZM28.3196 31.5H19.6811L18.2231 21H29.7731L28.3196 31.5Z" fill="url(#paint0_linear_2167_60761)"/>
</g>
<defs>
<linearGradient id="paint0_linear_2167_60761" x1="6.29809" y1="12.0165" x2="35.9831" y2="41.7015" gradientUnits="userSpaceOnUse">
<stop stop-color="#FDC830"/>
<stop offset="1" stop-color="#F37335"/>
</linearGradient>
</defs>
</svg>
