<svg width="64" height="64" viewBox="0 0 64 64" fill="none" xmlns="http://www.w3.org/2000/svg">
<g id="fi_1828857" clip-path="url(#clip0_519_952)">
<path id="Vector" d="M52 64H12C5.37207 64 0 58.6279 0 52V12C0 5.37207 5.37207 0 12 0H52C58.6279 0 64 5.37207 64 12V52C64 58.6279 58.6279 64 52 64Z" fill="#FEFBE8"/>
<path id="Vector_2" d="M47.9155 28.2539C47.7055 27.606 47.1293 27.1479 46.4536 27.0859L37.2153 26.2461L33.5634 17.7002C33.2954 17.0718 32.6816 16.666 31.9995 16.666C31.3173 16.666 30.7036 17.0718 30.4355 17.7002L26.7836 26.2461L17.5454 27.0859C16.8676 27.1479 16.2934 27.606 16.0834 28.2539C15.8735 28.9019 16.0673 29.6118 16.5795 30.062L23.5634 36.1841L21.5034 45.252C21.3515 45.918 21.6113 46.6079 22.1635 47.0078C22.4594 47.2241 22.8095 47.332 23.1616 47.332C23.4614 47.332 23.7636 47.252 24.0336 47.0898L31.9995 42.3281L39.9633 47.0898C40.5473 47.438 41.2817 47.4082 41.8334 47.0078C42.3857 46.6079 42.6455 45.918 42.4936 45.252L40.4335 36.1841L47.4174 30.0601C47.9316 29.6118 48.1254 28.9019 47.9155 28.2539Z" fill="#FAC515"/>
</g>
<defs>
<clipPath id="clip0_519_952">
<rect width="64" height="64" fill="white"/>
</clipPath>
</defs>
</svg>
