<svg width="81" height="80" viewBox="0 0 81 80" fill="none" xmlns="http://www.w3.org/2000/svg">
<g id="fi_3729935" clip-path="url(#clip0_519_813)">
<path id="Vector" d="M15.5 0H65.5C73.785 0 80.5 6.715 80.5 15V65C80.5 73.285 73.785 80 65.5 80H15.5C7.215 80 0.5 73.285 0.5 65V15C0.5 6.715 7.215 0 15.5 0Z" fill="#F5E6FE"/>
<path id="Vector_2" d="M56.7 37.9675L52.1675 33.435L47.635 37.9675C46.85 38.7525 45.5 38.1975 45.5 37.085V22.9175C45.5 21.31 46.8075 20 48.4175 20H55.9175C57.525 20 58.835 21.3075 58.835 22.9175V37.085C58.8325 38.2075 57.4775 38.745 56.7 37.9675Z" fill="#D9A4FC"/>
<path id="Vector_3" d="M52.1674 38.15L49.9849 40.3175C48.7249 41.6025 46.7699 42.045 45.0024 41.3175C43.2849 40.6 42.1699 38.95 42.1699 37.085V22.9175C42.1699 21.8675 42.4374 20.8675 42.9024 20H27.1699C24.4199 20 22.1699 22.25 22.1699 25V49.1675C22.1699 50.8 24.4024 53.335 27.1699 53.335H32.1699V58.75C32.1699 59.8375 33.4674 60.4 34.2524 59.6825L37.1699 57.0825L40.0874 59.6825C40.8474 60.3875 42.1699 59.855 42.1699 58.75V53.3325H50.4999C51.4174 53.3325 52.1674 52.5825 52.1674 51.665C52.1674 49.9425 52.1674 56.055 52.1674 38.15ZM32.1674 50H27.1674C26.2499 50 25.4999 49.25 25.4999 48.335C25.4999 47.4175 26.2499 46.6675 27.1674 46.6675H32.1674V50ZM48.8324 50H42.1649V46.6675H48.8324V50Z" fill="#BE63F9"/>
</g>
<defs>
<clipPath id="clip0_519_813">
<rect width="80" height="80" fill="white" transform="translate(0.5)"/>
</clipPath>
</defs>
</svg>
