<svg width="177" height="224" viewBox="0 0 177 224" fill="none" xmlns="http://www.w3.org/2000/svg">
<g id="Frame" clip-path="url(#clip0_1472_5960)">
<g id="Group">
<g id="Group_2">
<g id="Group_3">
<g id="Group_4">
<g id="Group_5">
<path id="Vector" d="M42.9065 0.373047L0.372803 42.9068V184.537H149.614V0.373047H42.9065Z" fill="white"/>
<path id="Vector_2" d="M149.614 184.984H0.372859C0.148997 184.984 -0.000244141 184.835 -0.000244141 184.611V42.9068C-0.000244141 42.8322 0.0743764 42.683 0.148997 42.6083L42.6827 0.0746206C42.6827 0.0746206 42.832 0 42.9066 0H149.614C149.838 0 149.987 0.149241 149.987 0.373103V184.537C150.062 184.761 149.838 184.984 149.614 184.984ZM0.820582 184.164H149.241V0.820826H43.0558L0.820582 43.0561V184.164Z" fill="#E0E0E0"/>
</g>
<path id="Vector_3" d="M0.372803 42.9068L44.9959 48.6526L42.9065 0.373047L0.372803 42.9068Z" fill="#E6E6E6"/>
<g id="Group_6">
<path id="Vector_4" d="M0.372803 42.9068H42.9065V0.373047L0.372803 42.9068Z" fill="white"/>
<path id="Vector_5" d="M42.9067 43.3546H0.373006C0.223765 43.3546 0.0745236 43.2799 -9.70047e-05 43.1307C-0.0747176 42.9814 -9.7001e-05 42.8322 0.0745236 42.683L42.6082 0.149241C42.7575 0 42.9067 0 43.056 0C43.2052 0.0746206 43.2798 0.223862 43.2798 0.373103V42.9068C43.3545 43.1307 43.1306 43.3546 42.9067 43.3546ZM1.34307 42.5337H42.5336V1.34317L1.34307 42.5337Z" fill="#E0E0E0"/>
</g>
</g>
<path id="Vector_6" d="M83.6494 104.17L109.02 78.7994C111.408 76.4116 111.408 72.5313 109.02 70.1434C106.633 67.7556 102.752 67.7556 100.364 70.1434L74.9934 95.5144L49.6224 70.1434C47.2346 67.7556 43.3543 67.7556 40.9664 70.1434C38.5786 72.5313 38.5786 76.4116 40.9664 78.7994L66.3374 104.17L40.9664 129.541C38.5786 131.929 38.5786 135.81 40.9664 138.197C43.3543 140.585 47.2346 140.585 49.6224 138.197L74.9934 112.826L100.364 138.197C102.752 140.585 106.633 140.585 109.02 138.197C111.408 135.81 111.408 131.929 109.02 129.541L83.6494 104.17Z" fill="#F0F0F0"/>
</g>
</g>
<g id="Group_7">
<path id="Vector_7" d="M175.582 221.698C173.717 223.563 170.732 223.563 168.866 221.698L153.569 206.4L160.285 199.685L175.582 214.982C177.448 216.847 177.448 219.907 175.582 221.698Z" fill="#F0F0F0"/>
<path id="Vector_8" d="M160.285 205.803L159.688 206.4C157.972 208.117 155.285 208.117 153.569 206.4L160.285 199.685C162.001 201.401 162.001 204.162 160.285 205.803Z" fill="#E0E0E0"/>
<path id="Vector_9" d="M111.184 157.3C98.2751 170.21 98.2751 191.178 111.184 204.087C124.094 216.997 145.062 216.997 157.972 204.087C170.881 191.178 170.881 170.21 157.972 157.3C145.062 144.391 124.094 144.391 111.184 157.3ZM156.031 202.147C144.167 214.012 124.915 214.012 113.05 202.147C101.185 190.282 101.185 171.03 113.05 159.166C124.915 147.301 144.167 147.301 156.031 159.166C167.896 171.105 167.896 190.282 156.031 202.147Z" fill="#E0E0E0"/>
<path id="Vector_10" d="M151.927 199.162C151.629 199.162 151.33 199.087 151.181 198.864C150.734 198.416 150.734 197.744 151.181 197.296C160.36 188.118 160.36 173.269 151.181 164.09C150.734 163.643 150.734 162.971 151.181 162.523C151.629 162.076 152.301 162.076 152.748 162.523C162.747 172.522 162.747 188.864 152.748 198.864C152.524 199.087 152.226 199.162 151.927 199.162Z" fill="#E0E0E0"/>
<path id="Vector_11" d="M110.588 187.522C110.065 187.522 109.618 187.148 109.543 186.701C107.901 179.836 109.17 172.523 113.05 166.628C113.423 166.105 114.095 165.956 114.617 166.329C115.139 166.702 115.289 167.374 114.916 167.896C111.334 173.269 110.215 179.985 111.707 186.253C111.856 186.85 111.483 187.447 110.886 187.596C110.811 187.447 110.737 187.522 110.588 187.522Z" fill="#E0E0E0"/>
<path id="Vector_12" d="M117.154 199.162C116.856 199.162 116.557 199.088 116.408 198.864C114.393 196.849 112.752 194.536 111.483 192.073C111.185 191.551 111.409 190.879 112.006 190.581C112.528 190.282 113.199 190.506 113.498 191.103C114.617 193.416 116.11 195.506 117.975 197.371C118.423 197.819 118.423 198.491 117.975 198.938C117.751 199.088 117.453 199.162 117.154 199.162Z" fill="#E0E0E0"/>
</g>
</g>
</g>
<defs>
<clipPath id="clip0_1472_5960">
<rect width="177" height="223.116" fill="white"/>
</clipPath>
</defs>
</svg>
