<svg width="104" height="104" viewBox="0 0 104 104" fill="none" xmlns="http://www.w3.org/2000/svg">
<g id="fi_9422785" clip-path="url(#clip0_1229_15049)">
<g id="Group">
<g id="Group_2">
<path id="Vector" d="M49.5438 58.8662C49.5438 51.3092 54.1436 44.8065 60.6901 42.0097V21.7626C60.6901 20.7208 61.5377 19.8732 62.5796 19.8732H63.2038V11.0906C63.2038 9.93486 62.267 8.99805 61.1112 8.99805H2.09259C0.936812 8.99805 0 9.93486 0 11.0906V92.2862C0 93.442 0.936812 94.3788 2.09259 94.3788H61.1114C62.2669 94.3788 63.204 93.442 63.204 92.2862V76.5853C55.3518 74.5182 49.5438 67.3581 49.5438 58.8662Z" fill="#DFF6FD"/>
<g id="Group_3">
<path id="Vector_2" d="M54.5111 71.3955V92.2865C54.5111 93.4421 53.5742 94.3791 52.4185 94.3791H61.1112C62.2668 94.3791 63.2038 93.4423 63.2038 92.2865V76.5853C59.8287 75.6969 56.832 73.8673 54.5111 71.3955Z" fill="#C8EFFE"/>
<path id="Vector_3" d="M54.5111 11.0906V46.3373C56.2376 44.4984 58.3377 43.0148 60.6901 42.0097V21.7626C60.6901 20.7208 61.5378 19.8732 62.5796 19.8732H63.2038V11.0906C63.2038 9.93506 62.267 8.99805 61.1112 8.99805H52.4185C53.5742 8.99805 54.5111 9.93486 54.5111 11.0906Z" fill="#C8EFFE"/>
</g>
<g id="Group_4">
<path id="Vector_4" d="M23.332 25.1221H19.9839C19.1423 25.1221 18.4604 24.44 18.4604 23.5986C18.4604 22.7573 19.1423 22.0752 19.9839 22.0752H23.332C24.1735 22.0752 24.8554 22.7573 24.8554 23.5986C24.8554 24.44 24.1735 25.1221 23.332 25.1221Z" fill="#8AC9FE"/>
</g>
<g id="Group_5">
<path id="Vector_5" d="M14.9619 25.1221H11.2039C10.3623 25.1221 9.68042 24.44 9.68042 23.5986C9.68042 22.7573 10.3623 22.0752 11.2039 22.0752H14.9619C15.8034 22.0752 16.4853 22.7573 16.4853 23.5986C16.4853 24.44 15.8034 25.1221 14.9619 25.1221Z" fill="#8AC9FE"/>
</g>
<g id="Group_6">
<path id="Vector_6" d="M52 25.1221H28.3542C27.5127 25.1221 26.8308 24.44 26.8308 23.5986C26.8308 22.7573 27.5127 22.0752 28.3542 22.0752H52C52.8416 22.0752 53.5235 22.7573 53.5235 23.5986C53.5235 24.44 52.8416 25.1221 52 25.1221Z" fill="#8AC9FE"/>
</g>
<g id="Group_7">
<path id="Vector_7" d="M52.0001 34.2983H11.2039C10.3623 34.2983 9.68042 33.6162 9.68042 32.7749C9.68042 31.9336 10.3623 31.2515 11.2039 31.2515H52.0001C52.8416 31.2515 53.5235 31.9336 53.5235 32.7749C53.5235 33.6162 52.8416 34.2983 52.0001 34.2983Z" fill="#8AC9FE"/>
</g>
<g id="Group_8">
<path id="Vector_8" d="M45.0947 43.4746H11.2039C10.3623 43.4746 9.68042 42.7925 9.68042 41.9512C9.68042 41.1098 10.3623 40.4277 11.2039 40.4277H45.0947C45.9362 40.4277 46.6181 41.1098 46.6181 41.9512C46.6181 42.7925 45.936 43.4746 45.0947 43.4746Z" fill="#8AC9FE"/>
</g>
<g id="Group_9">
<path id="Vector_9" d="M45.0947 52.6509H11.2039C10.3623 52.6509 9.68042 51.9688 9.68042 51.1274C9.68042 50.2861 10.3623 49.604 11.2039 49.604H45.0947C45.9362 49.604 46.6181 50.2861 46.6181 51.1274C46.6181 51.9688 45.936 52.6509 45.0947 52.6509Z" fill="#8AC9FE"/>
</g>
<path id="Vector_10" d="M49.5438 58.8662C49.5438 58.8374 49.5448 58.8089 49.5448 58.7803H16.7705C15.929 58.7803 15.2471 59.4624 15.2471 60.3037C15.2471 61.1451 15.929 61.8271 16.7705 61.8271H49.7843C49.6271 60.8629 49.5438 59.8741 49.5438 58.8662Z" fill="#8AC9FE"/>
<path id="Vector_11" d="M51.9624 67.9561H28.7705C27.929 67.9561 27.2471 68.6381 27.2471 69.4795C27.2471 70.3208 27.929 71.0029 28.7705 71.0029H52C52.6242 71.0029 53.1599 70.6274 53.3953 70.0901C52.87 69.4145 52.3906 68.7019 51.9624 67.9561Z" fill="#8AC9FE"/>
<g id="Group_10">
<path id="Vector_12" d="M52 80.1792H13.7705C12.929 80.1792 12.2471 79.4971 12.2471 78.6558C12.2471 77.8144 12.929 77.1323 13.7705 77.1323H52C52.8416 77.1323 53.5235 77.8144 53.5235 78.6558C53.5235 79.4971 52.8416 80.1792 52 80.1792Z" fill="#8AC9FE"/>
</g>
</g>
<g id="Group_11">
<path id="Vector_13" d="M95.9438 19.6699H62.5797C61.4241 19.6699 60.4871 20.6067 60.4871 21.7625V42.0986C62.7454 41.101 65.241 40.5459 67.8642 40.5459C74.2319 40.5459 79.8504 43.8121 83.1345 48.7564H95.9436C97.0993 48.7564 98.0361 47.8196 98.0361 46.6638V21.7625C98.0363 20.6067 97.0995 19.6699 95.9438 19.6699Z" fill="#FFD15B"/>
<g id="Group_12">
<path id="Vector_14" d="M95.9436 19.6694H87.1548C88.3106 19.6694 89.2474 20.6062 89.2474 21.762V46.6633C89.2474 47.8191 88.3106 48.7559 87.1548 48.7559H95.9436C97.0994 48.7559 98.0362 47.8191 98.0362 46.6633V21.762C98.0362 20.6062 97.0994 19.6694 95.9436 19.6694Z" fill="#FFC344"/>
</g>
<g id="Group_13">
<g id="Group_14">
<path id="Vector_15" d="M90.1972 28.8672H68.3259C67.4844 28.8672 66.8025 28.1851 66.8025 27.3438C66.8025 26.5024 67.4844 25.8203 68.3259 25.8203H90.1972C91.0388 25.8203 91.7206 26.5024 91.7206 27.3438C91.7206 28.1851 91.0386 28.8672 90.1972 28.8672Z" fill="#ECA026"/>
</g>
<g id="Group_15">
<path id="Vector_16" d="M90.1972 35.7373H68.3259C67.4844 35.7373 66.8025 35.0552 66.8025 34.2139C66.8025 33.3725 67.4844 32.6904 68.3259 32.6904H90.1972C91.0388 32.6904 91.7206 33.3725 91.7206 34.2139C91.7206 35.0552 91.0386 35.7373 90.1972 35.7373Z" fill="#ECA026"/>
</g>
<g id="Group_16">
<path id="Vector_17" d="M90.1973 42.6064H85.0625C84.221 42.6064 83.5391 41.9244 83.5391 41.083C83.5391 40.2417 84.221 39.5596 85.0625 39.5596H90.1973C91.0388 39.5596 91.7207 40.2417 91.7207 41.083C91.7207 41.9244 91.0386 42.6064 90.1973 42.6064Z" fill="#ECA026"/>
</g>
</g>
</g>
<g id="Group_17">
<g id="Group_18">
<path id="Vector_18" d="M85.1996 80.3123L89.3101 76.2019C89.3873 76.1247 89.4771 76.0652 89.5743 76.0237L82.8836 69.333C81.6454 71.1047 80.1022 72.6478 78.3306 73.8861L85.0221 80.5776C85.0629 80.4811 85.1212 80.3907 85.1996 80.3123Z" fill="#ACACAC"/>
</g>
<g id="Group_19">
<g id="Group_20">
<path id="Vector_19" d="M89.5745 76.0237L82.8838 69.333C82.2909 70.1813 81.6264 70.9753 80.9021 71.7104L87.3519 78.1602L89.3103 76.2019C89.3874 76.1247 89.4772 76.0652 89.5745 76.0237Z" fill="#9C9C9C"/>
</g>
</g>
<g id="Group_21">
<path id="Vector_20" d="M102.842 93.8439C101.298 95.3876 98.7957 95.3876 97.2519 93.8439L85.0516 81.6436C84.6429 81.2349 84.6429 80.5725 85.0516 80.164L89.1621 76.0536C89.5708 75.6449 90.2331 75.6449 90.6416 76.0536L102.842 88.2539C104.386 89.7974 104.386 92.3003 102.842 93.8439Z" fill="#838383"/>
</g>
<g id="Group_22">
<path id="Vector_21" d="M102.842 88.2539L90.6418 76.0536C90.2331 75.6449 89.5707 75.6449 89.1622 76.0536L87.2356 77.9802L97.5093 88.2539C99.053 89.7976 99.053 92.3003 97.5093 93.8441C97.468 93.8853 97.4233 93.9213 97.3807 93.9603C98.9317 95.3822 101.34 95.3464 102.842 93.8441C104.386 92.3003 104.386 89.7974 102.842 88.2539Z" fill="#5A5A5A"/>
</g>
<g id="Group_23">
<path id="Vector_22" d="M67.8642 77.3895C78.0944 77.3895 86.3876 69.0963 86.3876 58.8661C86.3876 48.636 78.0944 40.3428 67.8642 40.3428C57.634 40.3428 49.3408 48.636 49.3408 58.8661C49.3408 69.0963 57.634 77.3895 67.8642 77.3895Z" fill="#26A6FE"/>
</g>
<path id="Vector_23" d="M67.8643 40.3428C66.7471 40.3428 65.6531 40.4417 64.5903 40.6312C69.5586 41.5172 73.838 44.3864 76.5889 48.3881C79.5915 50.8925 81.5062 54.6594 81.5062 58.8659C81.5062 63.0725 79.5913 66.8394 76.5889 69.3437C73.8382 73.3455 69.5588 76.2146 64.5903 77.1009C65.6531 77.2904 66.7471 77.3893 67.8643 77.3893C78.0945 77.3893 86.3877 69.0961 86.3877 58.8659C86.3877 48.636 78.0945 40.3428 67.8643 40.3428Z" fill="#0593FC"/>
<g id="Group_24">
<path id="Vector_24" d="M67.8642 46.7476C74.5572 46.7476 79.9829 52.1732 79.9829 58.8662C79.9829 65.5592 74.5572 70.9848 67.8642 70.9848C61.1713 70.9848 55.7456 65.5592 55.7456 58.8662C55.7456 52.1732 61.1713 46.7476 67.8642 46.7476Z" fill="white"/>
</g>
<g id="Group_25">
<path id="Vector_25" d="M67.8641 46.7476C66.7126 46.7476 65.6001 46.9117 64.5447 47.2117C69.6232 48.6555 73.3439 53.3247 73.3439 58.8662C73.3439 64.4077 69.623 69.0769 64.5447 70.5207C65.5999 70.8207 66.7126 70.9848 67.8641 70.9848C74.5571 70.9848 79.9826 65.5592 79.9826 58.8662C79.9826 52.1732 74.5569 46.7476 67.8641 46.7476Z" fill="#F9F3F1"/>
</g>
</g>
<g id="Group_26">
<g id="Group_27">
<path id="Vector_26" d="M71.4608 54.6743H64.137C63.2954 54.6743 62.6135 53.9922 62.6135 53.1509C62.6135 52.3095 63.2954 51.6274 64.137 51.6274H71.4608C72.3024 51.6274 72.9843 52.3095 72.9843 53.1509C72.9843 53.9922 72.3022 54.6743 71.4608 54.6743Z" fill="#BFBFBF"/>
</g>
<g id="Group_28">
<path id="Vector_27" d="M73.5533 60.0171H62.0442C61.2026 60.0171 60.5208 59.335 60.5208 58.4937C60.5208 57.6523 61.2026 56.9702 62.0442 56.9702H73.5533C74.3948 56.9702 75.0767 57.6523 75.0767 58.4937C75.0767 59.335 74.3948 60.0171 73.5533 60.0171Z" fill="#BFBFBF"/>
</g>
<g id="Group_29">
<path id="Vector_28" d="M71.4608 65.3594H64.137C63.2954 65.3594 62.6135 64.6773 62.6135 63.8359C62.6135 62.9946 63.2954 62.3125 64.137 62.3125H71.4608C72.3024 62.3125 72.9843 62.9946 72.9843 63.8359C72.9843 64.6773 72.3022 65.3594 71.4608 65.3594Z" fill="#BFBFBF"/>
</g>
</g>
<g id="Group_30">
<g id="Group_31">
<path id="Vector_29" d="M67.8642 72.5083C60.3419 72.5083 54.2222 66.3885 54.2222 58.8662C54.2222 51.3439 60.3419 45.2241 67.8642 45.2241C75.3864 45.2241 81.5061 51.3439 81.5061 58.8662C81.5061 66.3885 75.3864 72.5083 67.8642 72.5083ZM67.8642 48.2712C62.022 48.2712 57.269 53.0241 57.269 58.8664C57.269 64.7087 62.022 69.4616 67.8642 69.4616C73.7063 69.4616 78.4592 64.7087 78.4592 58.8664C78.4592 53.0241 73.7061 48.2712 67.8642 48.2712Z" fill="#60B7FF"/>
</g>
</g>
</g>
</g>
<defs>
<clipPath id="clip0_1229_15049">
<rect width="104" height="104" fill="white"/>
</clipPath>
</defs>
</svg>
