<svg width="98" height="104" viewBox="0 0 98 104" fill="none" xmlns="http://www.w3.org/2000/svg">
<g opacity="0.5" clip-path="url(#clip0_3021_10608)">
<path fill-rule="evenodd" clip-rule="evenodd" d="M10.8197 5.72153C10.8197 5.22495 11.0164 4.74899 11.3687 4.3967C11.7191 4.04629 12.197 3.84766 12.6935 3.84766H54.9569L76.4053 27.6327V57.5266C76.4053 57.5266 76.4727 82.2187 69.4588 94.0072C69.1178 94.5488 68.5219 94.8767 67.881 94.8767C60.7097 94.8823 18.1334 94.8823 6.23243 94.8823C5.5747 94.8823 4.96569 94.5357 4.62652 93.9735C4.28735 93.4095 4.27048 92.7086 4.57967 92.1277C10.3943 79.5034 10.8197 57.5266 10.8197 57.5266V5.72153Z" fill="#CADCF0"/>
<path fill-rule="evenodd" clip-rule="evenodd" d="M76.4053 57.5283C76.4053 57.5283 76.4727 82.2204 69.4588 94.0089C69.1178 94.5504 68.5219 94.8784 67.881 94.8784C60.7097 94.884 18.1334 94.884 6.23243 94.884C5.5747 94.884 4.96569 94.5373 4.62652 93.9752C4.28735 93.4111 4.27048 92.7103 4.57967 92.1294L4.65275 91.9682C27.7276 93.0532 61.2362 89.0113 65.6492 87.2836C70.3639 85.4378 76.3116 67.7259 76.4034 57.7607L76.4053 57.5283Z" fill="#A4BBDB"/>
<path fill-rule="evenodd" clip-rule="evenodd" d="M76.4054 27.6327C70.7163 25.386 64.6937 25.3223 58.5118 26.2761C57.9384 26.3679 57.3556 26.1842 56.934 25.7851C56.5123 25.3841 56.3025 24.8107 56.3643 24.2335C57.0427 17.3114 56.3587 10.5393 54.957 3.84766C64.0228 10.5786 71.181 18.4995 76.4054 27.6327Z" fill="#04686E"/>
<path fill-rule="evenodd" clip-rule="evenodd" d="M71.458 65.3367L58.7637 78.0298C58.7637 78.0298 63.278 76.62 69.7658 78.876C70.8572 79.2553 72.6835 77.429 72.3042 76.3376C70.0482 69.8498 71.458 65.3367 71.458 65.3367Z" fill="#04686E"/>
<path fill-rule="evenodd" clip-rule="evenodd" d="M37.4847 44.0594C45.192 36.3533 57.7045 36.3533 65.4118 44.0594C73.1179 51.7667 73.1179 64.2792 65.4118 71.9865C57.7045 79.6926 45.192 79.6926 37.4847 71.9865C29.7785 64.2792 29.7785 51.7667 37.4847 44.0594Z" fill="#E9F3FC"/>
<path fill-rule="evenodd" clip-rule="evenodd" d="M62.8592 41.9043C63.7544 42.5398 64.6089 43.2591 65.412 44.0609C73.1181 51.7682 73.1181 64.2807 65.412 71.988C57.7047 79.6942 45.1922 79.6942 37.4849 71.988C37.0313 71.5332 36.604 71.0629 36.2031 70.5782C43.6735 73.0053 52.2114 71.2532 58.1427 65.3219C64.4689 58.9957 66.0415 49.7038 62.8592 41.9043Z" fill="#CADCF0"/>
<path fill-rule="evenodd" clip-rule="evenodd" d="M35.7931 42.3642C44.4339 33.7233 58.4639 33.7233 67.1048 42.3642C75.7456 51.005 75.7456 65.035 67.1048 73.6758C58.4639 82.3166 44.4339 82.3166 35.7931 73.6758C27.1523 65.035 27.1523 51.005 35.7931 42.3642ZM38.3315 44.9026C45.5709 37.6632 57.327 37.6632 64.5664 44.9026C71.8057 52.1419 71.8057 63.898 64.5664 71.1374C57.327 78.3768 45.5709 78.3768 38.3315 71.1374C31.0921 63.898 31.0921 52.1419 38.3315 44.9026Z" fill="#A4BBDB"/>
<path fill-rule="evenodd" clip-rule="evenodd" d="M31.6128 67.8674C27.5054 59.5868 28.8985 49.2609 35.7932 42.3662C42.2678 35.8916 51.7679 34.2687 59.7613 37.4977C59.8187 38.2313 59.8487 38.9745 59.8487 39.7249C59.8487 40.3041 59.8307 40.8798 59.796 41.4519C52.8415 37.9501 44.136 39.1014 38.3316 44.9046C32.1789 51.0573 31.2549 60.4725 35.5622 67.6053C34.3008 67.7777 33.013 67.8674 31.7061 67.8674H31.6128Z" fill="#B9CAE3"/>
<path fill-rule="evenodd" clip-rule="evenodd" d="M68.7978 82.9884C66.695 80.8856 66.695 77.476 68.7978 75.372C70.9005 73.2692 74.3114 73.2692 76.4141 75.372L93.7628 92.7207C94.2296 93.1874 92.9023 95.2734 90.8008 97.375C88.6992 99.4766 86.6132 100.804 86.1464 100.337L68.7978 82.9884Z" fill="#A4BBDB"/>
<path fill-rule="evenodd" clip-rule="evenodd" d="M68.7978 82.9884C66.695 80.8856 66.695 77.476 68.7978 75.372C70.9005 73.2692 74.3114 73.2692 76.4141 75.372L92.116 91.0739C92.5828 91.5406 91.2555 93.6266 89.154 95.7282C87.0524 97.8298 84.9664 99.157 84.4997 98.6903L68.7978 82.9884Z" fill="#CADCF0"/>
<path fill-rule="evenodd" clip-rule="evenodd" d="M48.9151 54.2516C48.8875 53.1111 49.316 52.2781 49.9766 51.7899C51.0154 51.0239 52.5677 51.0562 53.4102 52.0053C53.7716 52.4134 53.9811 52.9902 53.9871 53.7203C54.0014 55.4712 53.1804 56.4944 52.3762 57.5536C51.2943 58.9814 50.2136 60.4486 50.0795 62.8985C50.0436 63.5591 50.5511 64.1228 51.2105 64.1587C51.8699 64.1946 52.4348 63.6883 52.4707 63.0289C52.5713 61.1679 53.4617 60.0836 54.2839 58.9993C55.3849 57.5476 56.401 56.0995 56.3807 53.7011C56.3687 52.2913 55.8983 51.2034 55.1994 50.4159C53.567 48.5777 50.569 48.379 48.556 49.863C47.3497 50.7534 46.4724 52.2279 46.5215 54.3079C46.5371 54.9685 47.0864 55.4915 47.747 55.476C48.4064 55.4604 48.9306 54.9123 48.9151 54.2516Z" fill="#04686E"/>
<path d="M51.1654 68.5968C51.9784 68.5968 52.6375 67.9378 52.6375 67.1248C52.6375 66.3118 51.9784 65.6527 51.1654 65.6527C50.3524 65.6527 49.6934 66.3118 49.6934 67.1248C49.6934 67.9378 50.3524 68.5968 51.1654 68.5968Z" fill="#04686E"/>
<path fill-rule="evenodd" clip-rule="evenodd" d="M72.7015 37.5678L76.2919 31.5838C76.6318 31.0177 76.4487 30.2817 75.8814 29.9418C75.3153 29.6031 74.5793 29.7862 74.2394 30.3523L70.649 36.3363C70.3091 36.9035 70.4934 37.6396 71.0595 37.9783C71.6268 38.3181 72.3616 38.135 72.7015 37.5678Z" fill="#04686E"/>
<path fill-rule="evenodd" clip-rule="evenodd" d="M78.3613 41.5111L91.526 31.9367C92.0598 31.5478 92.1783 30.7986 91.7905 30.2648C91.4016 29.7299 90.6524 29.6126 90.1186 30.0003L76.9539 39.5747C76.419 39.9636 76.3017 40.7128 76.6894 41.2466C77.0784 41.7815 77.8276 41.8988 78.3613 41.5111Z" fill="#04686E"/>
<path fill-rule="evenodd" clip-rule="evenodd" d="M80.344 48.8825L89.9183 46.4889C90.5598 46.3285 90.9499 45.6787 90.7895 45.0372C90.6292 44.3969 89.9793 44.0068 89.3378 44.1671L79.7635 46.5607C79.1232 46.7211 78.7331 47.3709 78.8934 48.0124C79.0538 48.6527 79.7037 49.0429 80.344 48.8825Z" fill="#04686E"/>
</g>
<defs>
<clipPath id="clip0_3021_10608">
<rect width="96.973" height="104" fill="white" transform="translate(0.513672)"/>
</clipPath>
</defs>
</svg>
