<svg width="24" height="24" viewBox="0 0 24 24" fill="none" xmlns="http://www.w3.org/2000/svg">
<g id="fi_471709" clip-path="url(#clip0_1691_21778)">
<g id="Group">
<g id="Group_2">
<path id="Vector" d="M19.4083 7.01577L15.446 6.44L13.674 2.84962C12.9899 1.46315 11.0108 1.46264 10.3263 2.84957L8.55427 6.44L4.59198 7.01577C3.06199 7.23805 2.45004 9.12003 3.5575 10.1997L6.42465 12.9944L5.74783 16.9406C5.48645 18.4644 7.08704 19.628 8.45621 18.9084L12.0001 17.0452L15.5442 18.9084C16.9149 19.629 18.5133 18.4609 18.2524 16.9406L17.5756 12.9944L20.4428 10.1997C21.5498 9.1204 20.9389 7.23819 19.4083 7.01577Z" fill="#04686E"/>
</g>
</g>
<g id="Group_3">
<g id="Group_4">
<path id="Vector_2" d="M6.31607 2.21006L5.35931 0.893247C5.09957 0.535873 4.59928 0.456608 4.2419 0.716342C3.88448 0.976029 3.80526 1.47632 4.06495 1.83375L5.02171 3.15056C5.28159 3.50812 5.78193 3.5871 6.13912 3.32746C6.49654 3.06782 6.57576 2.56748 6.31607 2.21006Z" fill="#04686E"/>
</g>
</g>
<g id="Group_5">
<g id="Group_6">
<path id="Vector_3" d="M3.14046 14.011C3.00392 13.5909 2.5527 13.3607 2.13242 13.4974L0.552968 14.0107C0.132781 14.1471 -0.0971405 14.5985 0.0393592 15.0187C0.17614 15.4397 0.628296 15.6687 1.0474 15.5323L2.6269 15.0191C3.04709 14.8826 3.27701 14.4313 3.14046 14.011Z" fill="#04686E"/>
</g>
</g>
<g id="Group_7">
<g id="Group_8">
<path id="Vector_4" d="M19.7583 0.716355C19.4009 0.456621 18.9006 0.53584 18.6409 0.893261L17.6841 2.21007C17.4244 2.56749 17.5036 3.06783 17.8611 3.32747C18.2186 3.58726 18.7188 3.50785 18.9785 3.15057L19.9352 1.83376C20.195 1.47634 20.1157 0.976042 19.7583 0.716355Z" fill="#04686E"/>
</g>
</g>
<g id="Group_9">
<g id="Group_10">
<path id="Vector_5" d="M23.4472 14.0107L21.8677 13.4975C21.4476 13.3607 20.9962 13.5909 20.8597 14.0111C20.7231 14.4313 20.9531 14.8826 21.3733 15.0191L22.9528 15.5324C23.3721 15.6688 23.8241 15.4395 23.9608 15.0188C24.0973 14.5986 23.8674 14.1473 23.4472 14.0107Z" fill="#04686E"/>
</g>
</g>
<g id="Group_11">
<g id="Group_12">
<path id="Vector_6" d="M11.9992 20.2129C11.5574 20.2129 11.1992 20.5711 11.1992 21.0129V22.6365C11.1992 23.0783 11.5574 23.4365 11.9992 23.4365C12.441 23.4365 12.7992 23.0783 12.7992 22.6365V21.0129C12.7992 20.5711 12.441 20.2129 11.9992 20.2129Z" fill="#04686E"/>
</g>
</g>
</g>
<defs>
<clipPath id="clip0_1691_21778">
<rect width="24" height="24" fill="white"/>
</clipPath>
</defs>
</svg>
