<svg width="72" height="72" viewBox="0 0 72 72" fill="none" xmlns="http://www.w3.org/2000/svg">
<g id="fi_9818289" clip-path="url(#clip0_2202_72345)">
<g id="Group">
<path id="Vector" d="M69.6007 26.6472L69.3151 26.9847C69.0959 27.2439 68.9404 27.5507 68.861 27.8808L68.5645 29.115C67.4953 33.5647 63.5785 36.7469 59.0042 36.8823L57.8127 36.9176C57.3814 36.9304 56.9637 37.0712 56.6129 37.3222L55.245 38.3005C51.7169 40.8238 46.9747 40.8238 43.4466 38.3005L42.0787 37.3222C41.7279 37.0712 41.3102 36.9304 40.8789 36.9176L39.6874 36.8823C35.1132 36.7469 31.1963 33.5646 30.1273 29.115L29.8307 27.8806C29.7514 27.5506 29.5959 27.2437 29.3766 26.9846L29.091 26.6471C25.8915 22.8661 25.8915 17.3269 29.091 13.5457L29.3766 13.2082C29.5959 12.9491 29.7514 12.6422 29.8307 12.3122L30.1273 11.0779C31.1965 6.62825 35.1132 3.44605 39.6875 3.31063L40.8791 3.27533C41.3104 3.26254 41.728 3.12177 42.0789 2.87075L43.4467 1.89243C46.9749 -0.630809 51.717 -0.630809 55.2452 1.89243L56.613 2.87075C56.9639 3.12177 57.3815 3.26254 57.8128 3.27533L59.0044 3.31063C63.5786 3.44605 67.4954 6.62839 68.5645 11.0779L68.861 12.3123C68.9404 12.6424 69.0959 12.9492 69.3151 13.2084L69.6007 13.5459C72.8002 17.327 72.8002 22.8662 69.6007 26.6472Z" fill="#E94444"/>
<path id="Vector_2" d="M69.5998 13.5463L69.3142 13.2088C69.095 12.9496 68.9395 12.6428 68.8601 12.3127L68.5636 11.0783C67.4944 6.62867 63.5777 3.44647 59.0035 3.31105L58.0641 3.2832C61.0813 4.46881 63.4274 7.06517 64.2175 10.354L64.5141 11.5884C64.5934 11.9184 64.749 12.2253 64.9682 12.4844L65.2538 12.8219C68.4535 16.6029 68.4535 22.1421 65.2538 25.9233L64.9682 26.2608C64.749 26.5199 64.5934 26.8268 64.5141 27.1568L64.2175 28.3911C63.1484 32.8408 59.2317 36.023 54.6573 36.1584L53.4658 36.1937C53.0345 36.2065 52.6168 36.3472 52.266 36.5983L50.8981 37.5766C49.2888 38.7275 47.4269 39.3534 45.543 39.4543C48.71 40.7354 52.3778 40.351 55.2443 38.3009L56.6121 37.3226C56.963 37.0716 57.3806 36.9308 57.8119 36.918L59.0035 36.8827C63.5777 36.7473 67.4945 33.5651 68.5637 29.1155L68.8603 27.8812C68.9396 27.5511 69.0951 27.2443 69.3144 26.9851L69.6 26.6476C72.7993 22.8665 72.7993 17.3273 69.5998 13.5463Z" fill="#D83131"/>
<path id="Vector_3" d="M42.9093 33.3972L42.6237 33.7347C42.4045 33.9939 42.249 34.3007 42.1696 34.6308L41.8731 35.865C40.8039 40.3147 36.8872 43.4969 32.3128 43.6323L31.1213 43.6676C30.69 43.6804 30.2723 43.8212 29.9215 44.0722L28.5536 45.0505C25.0255 47.5738 20.2833 47.5738 16.7552 45.0505L15.3873 44.0722C15.0365 43.8212 14.6188 43.6804 14.1875 43.6676L12.996 43.6323C8.42175 43.4969 4.50492 40.3146 3.43589 35.865L3.13931 34.6306C3.06 34.3006 2.90447 33.9937 2.68523 33.7346L2.39963 33.3971C-0.799875 29.6161 -0.799875 24.0769 2.39963 20.2957L2.68523 19.9582C2.90447 19.6991 3.06 19.3922 3.13931 19.0622L3.43589 17.8279C4.50506 13.3783 8.42175 10.1961 12.9961 10.0606L14.1877 10.0253C14.619 10.0125 15.0366 9.87177 15.3875 9.62075L16.7553 8.64243C20.2835 6.11919 25.0256 6.11919 28.5538 8.64243L29.9216 9.62075C30.2725 9.87177 30.6901 10.0125 31.1214 10.0253L32.313 10.0606C36.8872 10.1961 40.804 13.3784 41.8731 17.8279L42.1696 19.0623C42.249 19.3924 42.4045 19.6992 42.6237 19.9584L42.9093 20.2959C46.1088 24.077 46.1088 29.6162 42.9093 33.3972Z" fill="#FFC344"/>
<g id="Group_2">
<path id="Vector_4" d="M13.9238 29.0977C15.1665 29.0977 16.1738 28.0903 16.1738 26.8477C16.1738 25.605 15.1665 24.5977 13.9238 24.5977C12.6812 24.5977 11.6738 25.605 11.6738 26.8477C11.6738 28.0903 12.6812 29.0977 13.9238 29.0977Z" fill="#EAF9FA"/>
<path id="Vector_5" d="M22.9238 29.0977C24.1665 29.0977 25.1738 28.0903 25.1738 26.8477C25.1738 25.605 24.1665 24.5977 22.9238 24.5977C21.6812 24.5977 20.6738 25.605 20.6738 26.8477C20.6738 28.0903 21.6812 29.0977 22.9238 29.0977Z" fill="#EAF9FA"/>
<path id="Vector_6" d="M31.9238 29.0977C33.1665 29.0977 34.1738 28.0903 34.1738 26.8477C34.1738 25.605 33.1665 24.5977 31.9238 24.5977C30.6812 24.5977 29.6738 25.605 29.6738 26.8477C29.6738 28.0903 30.6812 29.0977 31.9238 29.0977Z" fill="#EAF9FA"/>
</g>
<path id="Vector_7" d="M69.6007 49.4538L69.3151 49.7913C69.0959 50.0505 68.9404 50.3574 68.861 50.6874L68.5645 51.9217C67.4953 56.3713 63.5785 59.5535 59.0042 59.689L57.8127 59.7243C57.3814 59.7371 56.9637 59.8778 56.6129 60.1288L55.245 61.1072C51.7169 63.6304 46.9747 63.6304 43.4466 61.1072L42.0787 60.1288C41.7279 59.8778 41.3102 59.7371 40.8789 59.7243L39.6874 59.689C35.1132 59.5535 31.1963 56.3713 30.1273 51.9217L29.8307 50.6873C29.7514 50.3572 29.5959 50.0504 29.3766 49.7912L29.091 49.4537C25.8915 45.6727 25.8915 40.1335 29.091 36.3524L29.3766 36.0149C29.5959 35.7557 29.7514 35.4489 29.8307 35.1188L30.1273 33.8846C31.1965 29.4349 35.1132 26.2527 39.6875 26.1173L40.8791 26.082C41.3104 26.0692 41.728 25.9284 42.0789 25.6774L43.4467 24.6991C46.9749 22.1758 51.717 22.1758 55.2452 24.6991L56.613 25.6774C56.9639 25.9284 57.3815 26.0692 57.8128 26.082L59.0044 26.1173C63.5786 26.2527 67.4954 29.435 68.5645 33.8846L68.861 35.119C68.9404 35.449 69.0959 35.7558 69.3151 36.015L69.6007 36.3525C72.8002 40.1335 72.8002 45.6727 69.6007 49.4538Z" fill="#02C7DD"/>
<path id="Vector_8" d="M69.6004 36.3526L69.3148 36.0151C69.0955 35.7559 68.94 35.4491 68.8607 35.119L68.5641 33.8846C67.5682 29.7397 64.1014 26.6946 59.9338 26.1875C61.2983 27.4976 62.3038 29.1946 62.7693 31.1322L63.0658 32.3666C63.1451 32.6966 63.3007 33.0035 63.5199 33.2626L63.8055 33.6001C67.0052 37.3812 67.0052 42.9203 63.8055 46.7015L63.5199 47.039C63.3007 47.2981 63.1451 47.605 63.0658 47.935L62.7693 49.1693C61.7001 53.6189 57.7833 56.8011 53.209 56.9366L52.0175 56.9719C51.5863 56.9847 51.1685 57.1254 50.8177 57.3764L49.4498 58.3548C47.2714 59.9128 44.6302 60.5087 42.0977 60.1428L43.4462 61.1074C46.9744 63.6306 51.7165 63.6306 55.2447 61.1074L56.6125 60.129C56.9634 59.878 57.3811 59.7372 57.8124 59.7244L59.0039 59.6892C63.5781 59.5537 67.495 56.3715 68.5641 51.9219L68.8607 50.6876C68.94 50.3576 69.0955 50.0507 69.3148 49.7915L69.6004 49.454C72.7999 45.6728 72.7999 40.1336 69.6004 36.3526Z" fill="#07B2CD"/>
<path id="Vector_9" d="M40.3457 45.1543C41.5883 45.1543 42.5957 44.1469 42.5957 42.9043C42.5957 41.6617 41.5883 40.6543 40.3457 40.6543C39.1031 40.6543 38.0957 41.6617 38.0957 42.9043C38.0957 44.1469 39.1031 45.1543 40.3457 45.1543Z" fill="#EAF9FA"/>
<path id="Vector_10" d="M49.3457 45.1543C50.5883 45.1543 51.5957 44.1469 51.5957 42.9043C51.5957 41.6617 50.5883 40.6543 49.3457 40.6543C48.1031 40.6543 47.0957 41.6617 47.0957 42.9043C47.0957 44.1469 48.1031 45.1543 49.3457 45.1543Z" fill="#EAF9FA"/>
<path id="Vector_11" d="M58.5 69.75C59.7426 69.75 60.75 68.7426 60.75 67.5C60.75 66.2574 59.7426 65.25 58.5 65.25C57.2574 65.25 56.25 66.2574 56.25 67.5C56.25 68.7426 57.2574 69.75 58.5 69.75Z" fill="#02C7DD"/>
<path id="Vector_12" d="M27 63C28.2426 63 29.25 61.9926 29.25 60.75C29.25 59.5074 28.2426 58.5 27 58.5C25.7574 58.5 24.75 59.5074 24.75 60.75C24.75 61.9926 25.7574 63 27 63Z" fill="#E94444"/>
<path id="Vector_13" d="M11.25 54C12.4926 54 13.5 52.9926 13.5 51.75C13.5 50.5074 12.4926 49.5 11.25 49.5C10.0074 49.5 9 50.5074 9 51.75C9 52.9926 10.0074 54 11.25 54Z" fill="#FFC344"/>
<path id="Vector_14" d="M6.73814 58.6008C6.78909 57.3594 5.82404 56.3118 4.58264 56.2608C3.34124 56.2099 2.29359 57.1749 2.24264 58.4163C2.19169 59.6577 3.15674 60.7054 4.39814 60.7563C5.63954 60.8073 6.68719 59.8422 6.73814 58.6008Z" fill="#FFC344"/>
<path id="Vector_15" d="M20.25 69.75C21.4926 69.75 22.5 68.7426 22.5 67.5C22.5 66.2574 21.4926 65.25 20.25 65.25C19.0074 65.25 18 66.2574 18 67.5C18 68.7426 19.0074 69.75 20.25 69.75Z" fill="#E94444"/>
<path id="Vector_16" d="M67.5 72C68.7426 72 69.75 70.9926 69.75 69.75C69.75 68.5074 68.7426 67.5 67.5 67.5C66.2574 67.5 65.25 68.5074 65.25 69.75C65.25 70.9926 66.2574 72 67.5 72Z" fill="#02C7DD"/>
<path id="Vector_17" d="M58.3457 45.1543C59.5883 45.1543 60.5957 44.1469 60.5957 42.9043C60.5957 41.6617 59.5883 40.6543 58.3457 40.6543C57.1031 40.6543 56.0957 41.6617 56.0957 42.9043C56.0957 44.1469 57.1031 45.1543 58.3457 45.1543Z" fill="#EAF9FA"/>
<path id="Vector_18" d="M51.5959 16.6113C52.0719 15.4631 51.5269 14.1465 50.3787 13.6705C49.2305 13.1946 47.9139 13.7396 47.4379 14.8878C46.962 16.036 47.507 17.3526 48.6552 17.8285C49.8034 18.3045 51.12 17.7595 51.5959 16.6113Z" fill="#EAF9FA"/>
<path id="Vector_19" d="M60.5998 16.6093C61.0758 15.4611 60.5308 14.1445 59.3826 13.6686C58.2344 13.1927 56.9178 13.7376 56.4418 14.8858C55.9659 16.034 56.5109 17.3507 57.6591 17.8266C58.8073 18.3025 60.1239 17.7575 60.5998 16.6093Z" fill="#EAF9FA"/>
</g>
</g>
<defs>
<clipPath id="clip0_2202_72345">
<rect width="72" height="72" fill="white"/>
</clipPath>
</defs>
</svg>
