<svg width="56" height="56" viewBox="0 0 56 56" fill="none" xmlns="http://www.w3.org/2000/svg">
    <rect width="56" height="56" rx="16" fill="#E3FBCC" />
    <g clip-path="url(#clip0_1229_15871)">
        <path
            d="M30.3667 39.6709H38.1716C39 39.6709 39.6716 38.9993 39.6716 38.1709V30.366C39.6716 29.5376 39 28.866 38.1716 28.866H30.3667C29.5383 28.866 28.8667 29.5376 28.8667 30.366V38.1709C28.8667 38.9993 29.5383 39.6709 30.3667 39.6709Z"
            fill="#66C61C" />
        <path
            d="M25.6327 28.8662H17.8278C16.9994 28.8662 16.3278 29.5378 16.3278 30.3662V38.1711C16.3278 38.9995 16.9994 39.6711 17.8278 39.6711H25.6327C26.4611 39.6711 27.1327 38.9995 27.1327 38.1711V30.3662C27.1327 29.5378 26.4611 28.8662 25.6327 28.8662Z"
            fill="#66C61C" />
        <path
            d="M30.3667 27.1328H38.1716C39 27.1328 39.6716 26.4612 39.6716 25.6328V17.8279C39.6716 16.9995 39 16.3279 38.1716 16.3279H30.3667C29.5383 16.3279 28.8667 16.9995 28.8667 17.8279V25.6328C28.8667 26.4612 29.5383 27.1328 30.3667 27.1328Z"
            fill="#66C61C" />
        <path
            d="M25.6328 16.3276H17.8279C16.9995 16.3276 16.3279 16.9992 16.3279 17.8276V25.6325C16.3279 26.4609 16.9995 27.1325 17.8279 27.1325H25.6328C26.4612 27.1325 27.1328 26.4609 27.1328 25.6325V17.8276C27.1328 16.9992 26.4612 16.3276 25.6328 16.3276Z"
            fill="#66C61C" />
        <path
            d="M33.7052 37.3859L30.3781 34.2271L31.4106 33.1394L33.6381 35.254L37.2353 31.3799L38.3346 32.4006L33.7052 37.3859Z"
            fill="white" />
        <path
            d="M22.4517 30.5356H19.1057V38.0013H22.4517C22.9564 38.0008 23.4403 37.8001 23.7973 37.4432C24.1542 37.0863 24.3551 36.6024 24.3557 36.0976V35.4226C24.3554 35.0051 24.2169 34.5994 23.962 34.2688C24.2169 33.9381 24.3554 33.5324 24.3557 33.1149V32.4399C24.3552 31.9351 24.1544 31.451 23.7974 31.0941C23.4405 30.7371 22.9565 30.5362 22.4517 30.5356ZM20.6057 32.0356H22.4517C22.5587 32.0358 22.6614 32.0784 22.7371 32.1541C22.8129 32.2298 22.8555 32.3324 22.8557 32.4395V33.1145C22.8556 33.2216 22.8129 33.3243 22.7372 33.4C22.6614 33.4757 22.5588 33.5183 22.4517 33.5184H20.6057V32.0356ZM22.8557 36.0976C22.8555 36.2047 22.8129 36.3073 22.7371 36.383C22.6614 36.4587 22.5587 36.5012 22.4517 36.5013H20.6057V35.0186H22.4517C22.5588 35.0187 22.6614 35.0613 22.7372 35.137C22.8129 35.2127 22.8556 35.3154 22.8557 35.4225V36.0976Z"
            fill="white" />
        <path
            d="M33.9329 19.4971H36.1442V17.9971H33.9329C33.3261 17.9977 32.7444 18.239 32.3153 18.668C31.8863 19.0971 31.6449 19.6788 31.6442 20.2855V23.1743C31.6452 23.7809 31.8866 24.3624 32.3157 24.7912C32.7447 25.22 33.3263 25.4612 33.9329 25.4618H36.1442V23.9618H33.9329C33.724 23.9616 33.5236 23.8786 33.3758 23.731C33.228 23.5834 33.1447 23.3832 33.1442 23.1743V20.2855C33.1445 20.0764 33.2276 19.876 33.3755 19.7282C33.5233 19.5804 33.7238 19.4973 33.9329 19.4971Z"
            fill="white" />
        <path
            d="M22.0671 17.9971H21.3941C20.7876 17.998 20.2061 18.2394 19.7773 18.6684C19.3485 19.0974 19.1073 19.679 19.1066 20.2855V24.7128H20.6066V23.1175H22.8566V24.7128H24.3566V20.2855C24.3559 19.6786 24.1145 19.0968 23.6852 18.6677C23.2559 18.2387 22.674 17.9975 22.0671 17.9971ZM20.6057 21.6175V20.2863C20.6061 20.0775 20.6892 19.8775 20.8368 19.7299C20.9844 19.5823 21.1845 19.4992 21.3932 19.4988H22.0661C22.275 19.499 22.4753 19.582 22.6232 19.7296C22.771 19.8772 22.8543 20.0774 22.8548 20.2863V21.6175H20.6057Z"
            fill="white" />
    </g>
    <defs>
        <clipPath id="clip0_1229_15871">
            <rect width="24" height="24" fill="white" transform="translate(16 16)" />
        </clipPath>
    </defs>
</svg>