<svg width="64" height="64" viewBox="0 0 64 64" fill="none" xmlns="http://www.w3.org/2000/svg">
<path d="M52 64H12C5.37207 64 0 58.6279 0 52V12C0 5.37207 5.37207 0 12 0H52C58.6279 0 64 5.37207 64 12V52C64 58.6279 58.6279 64 52 64Z" fill="#FEF6EE"/>
<path d="M19.9746 42.3171V45.5726C21.8075 45.2556 23.5894 45.0952 25.2804 45.0952C28.1393 45.0952 30.8557 45.5548 33.369 46.4632V43.2445C29.8635 41.645 25.4199 41.3344 19.9746 42.3171Z" fill="#EF6820"/>
<path d="M33.9524 31.7684C33.9678 31.7684 33.9832 31.7667 33.9987 31.7667C34.0135 31.7667 34.0272 31.7684 34.042 31.769C37.1919 31.7453 39.7474 29.1779 39.7474 26.0221C39.7474 22.8521 37.1687 20.2734 33.9987 20.2734C30.8287 20.2734 28.25 22.8521 28.25 26.0221C28.25 29.1761 30.8037 31.7435 33.9524 31.7684Z" fill="#EF6820"/>
<path d="M34.627 43.2445V46.4632C38.6265 45.0181 43.0885 44.72 48.0214 45.5726V42.3171C42.5761 41.3344 38.1319 41.645 34.627 43.2445Z" fill="#EF6820"/>
<path d="M44.6535 40.6032C44.1025 39.0054 43.1911 37.5412 41.9787 36.3288C39.8584 34.2085 37.0411 33.0376 34.0426 33.0264C34.0278 33.0264 34.0141 33.0287 33.9993 33.0287C33.9838 33.0287 33.9684 33.0264 33.953 33.0264C29.1424 33.046 24.9096 36.1133 23.3516 40.602C27.5149 40.2624 31.0567 40.7819 33.9993 42.1541C36.9431 40.7813 40.4872 40.2624 44.6535 40.6032Z" fill="#EF6820"/>
</svg>
