<svg width="24" height="24" viewBox="0 0 24 24" fill="none" xmlns="http://www.w3.org/2000/svg">
<g id="fi_2437535" clip-path="url(#clip0_1705_8351)">
<g id="XMLID_137_">
<path id="XMLID_153_" d="M7.12884 11.2507H16.82C17.2785 11.2507 17.65 10.8791 17.65 10.4206V1.0722C17.65 0.613766 17.2784 0.242188 16.82 0.242188H7.12884C6.67041 0.242188 6.29883 0.613812 6.29883 1.0722V10.4207C6.29878 10.8791 6.67041 11.2507 7.12884 11.2507ZM8.93822 8.59339L10.8957 2.32081C10.9517 2.14953 11.0798 2.01748 11.2798 1.92495C11.4798 1.83242 11.7095 1.78611 11.9692 1.78611C12.2287 1.78611 12.4585 1.83242 12.6585 1.92495C12.8585 2.01748 12.9864 2.14953 13.0426 2.32081L15.0106 8.59339C15.0714 8.82598 14.9175 9.03913 14.6896 9.1693C14.4615 9.29961 14.2248 9.36467 13.9792 9.36467C13.6775 9.36467 13.4986 9.26539 13.4425 9.0665L13.0847 7.78109H10.8641L10.5063 9.0665C10.4501 9.26539 10.2712 9.36467 9.96961 9.36467C9.72394 9.36467 9.48717 9.29961 9.25922 9.1693C9.03112 9.03913 8.88886 8.77784 8.93822 8.59339Z" fill="#EF6820"/>
<path id="XMLID_152_" d="M11.9694 3.79199L11.2012 6.54787H12.7377L11.9694 3.79199Z" fill="#EF6820"/>
<path id="XMLID_151_" d="M6.21889 17.0867C6.32413 16.9463 6.37677 16.78 6.37677 16.588C6.37677 16.3962 6.32413 16.2281 6.21889 16.0842C6.11366 15.9402 5.96633 15.8682 5.77686 15.8682H4.67188V17.2975H5.77691C5.96633 17.2975 6.1137 17.2273 6.21889 17.0867Z" fill="#EF6820"/>
<path id="XMLID_148_" d="M10.4188 12.6514H0.830016C0.371625 12.6514 0 13.023 0 13.4814V22.9299C0 23.3884 0.371625 23.7599 0.830016 23.7599H10.4188C10.8772 23.7599 11.2488 23.3883 11.2488 22.9299V13.4814C11.2488 13.023 10.8772 12.6514 10.4188 12.6514ZM8.20805 19.7767C8.20805 20.5445 8.0168 21.1049 7.63448 21.4579C7.25198 21.8111 6.73814 21.9875 6.09272 21.9875H3.64336C3.24417 21.9875 3.04078 21.7788 3.04078 21.5042V14.9642C3.04078 14.7445 3.17639 14.4707 3.64336 14.4707H5.91384C7.317 14.4707 8.01867 15.0809 8.01867 16.301C8.01867 16.7451 7.93172 17.1064 7.75791 17.3847C7.56089 17.7 7.60008 18.1005 7.85091 18.3751C7.88053 18.4075 7.90842 18.4411 7.93448 18.4759C8.11687 18.7193 8.20809 19.081 8.20809 19.5608V19.7767H8.20805Z" fill="#EF6820"/>
<path id="XMLID_147_" d="M5.72427 18.5312H4.67188V20.5878H5.72427C6.2855 20.5878 6.56619 20.2726 6.56619 19.6418V19.4772C6.56619 18.8466 6.2855 18.5312 5.72427 18.5312Z" fill="#EF6820"/>
<path id="XMLID_138_" d="M23.1697 12.6514H13.4785C13.02 12.6514 12.6484 13.023 12.6484 13.4814V22.9299C12.6484 23.3883 13.0201 23.7599 13.4785 23.7599H23.1696C23.6281 23.7599 23.9996 23.3883 23.9996 22.9299V13.4814C23.9997 13.023 23.6281 12.6514 23.1697 12.6514ZM18.3399 20.6507C19.0907 20.6507 19.227 19.9724 19.266 19.6224C19.2939 19.3003 19.5641 19.1391 20.0763 19.1391C20.3778 19.1391 20.592 19.1923 20.7182 19.2985C20.8445 19.4048 20.9077 19.6054 20.9077 19.9001C20.9077 20.5651 20.6604 21.0895 20.1658 21.4733C19.6712 21.8573 19.0379 22.0492 18.2662 22.0492C17.5153 22.0492 16.9068 21.8539 16.4402 21.4631C15.9736 21.0723 15.7404 20.4589 15.7404 19.6224V16.8974C15.7404 16.0611 15.9736 15.4476 16.4402 15.0568C16.9068 14.666 17.5154 14.4707 18.2662 14.4707C19.0379 14.4707 19.6712 14.6524 20.1658 15.0156C20.6604 15.3791 20.9077 15.8794 20.9077 16.5169C20.9077 16.8118 20.8446 17.0123 20.7182 17.1185C20.592 17.2249 20.3815 17.2779 20.0868 17.2779C19.5606 17.2779 19.287 17.1169 19.2659 16.7946C19.2449 16.1777 18.9326 15.8691 18.3293 15.8691C17.6978 15.8691 17.3821 16.212 17.3821 16.8975V19.6225C17.3822 20.308 17.7013 20.6507 18.3399 20.6507Z" fill="#EF6820"/>
</g>
</g>
<defs>
<clipPath id="clip0_1705_8351">
<rect width="24" height="24" fill="white"/>
</clipPath>
</defs>
</svg>
