<svg width="64" height="64" viewBox="0 0 64 64" fill="none" xmlns="http://www.w3.org/2000/svg">
<g id="fi_1828857" clip-path="url(#clip0_522_975)">
<path id="Vector" d="M52 64H12C5.37207 64 0 58.6279 0 52V12C0 5.37207 5.37207 0 12 0H52C58.6279 0 64 5.37207 64 12V52C64 58.6279 58.6279 64 52 64Z" fill="#EFF4FF"/>
<path id="Vector_2" d="M47.7096 17.4289V45.9035C47.7096 46.9451 47.2958 47.9441 46.5593 48.6806C45.8227 49.4172 44.8237 49.831 43.7821 49.831H20.217C19.1753 49.831 18.1764 49.4172 17.4398 48.6806C16.7033 47.9441 16.2895 46.9451 16.2895 45.9035V24.5377C16.2878 24.459 16.2911 24.3803 16.2993 24.3021C16.3619 23.3453 16.7661 22.4428 17.4383 21.759L24.5471 14.6502C25.2309 13.978 26.1333 13.5738 27.0901 13.5112C27.1684 13.503 27.2471 13.4998 27.3258 13.5014H43.7821C44.8237 13.5014 45.8227 13.9152 46.5593 14.6517C47.2958 15.3883 47.7096 16.3873 47.7096 17.4289Z" fill="#2970FF"/>
<path id="Vector_3" d="M27.0916 13.5156V21.3609C27.0893 22.1414 26.7782 22.8893 26.2263 23.4412C25.6744 23.9931 24.9265 24.3042 24.146 24.3065H16.3008C16.3634 23.3497 16.7676 22.4472 17.4398 21.7634L24.5486 14.6546C25.2324 13.9824 26.1348 13.5782 27.0916 13.5156Z" fill="#004EEB"/>
<g id="Group">
<path id="Vector_4" d="M40.8369 25.2831H32.9819C32.7215 25.2831 32.4717 25.1796 32.2876 24.9955C32.1034 24.8114 32 24.5616 32 24.3012C32 24.0408 32.1034 23.7911 32.2876 23.6069C32.4717 23.4228 32.7215 23.3193 32.9819 23.3193H40.8369C41.0973 23.3193 41.3471 23.4228 41.5312 23.6069C41.7153 23.7911 41.8188 24.0408 41.8188 24.3012C41.8188 24.5616 41.7153 24.8114 41.5312 24.9955C41.3471 25.1796 41.0973 25.2831 40.8369 25.2831Z" fill="#F9F5F5"/>
<path id="Vector_5" d="M40.8371 21.3573H36.9096C36.6492 21.3573 36.3995 21.2539 36.2153 21.0697C36.0312 20.8856 35.9277 20.6358 35.9277 20.3754C35.9277 20.115 36.0312 19.8653 36.2153 19.6811C36.3995 19.497 36.6492 19.3936 36.9096 19.3936H40.8371C41.0975 19.3936 41.3473 19.497 41.5314 19.6811C41.7156 19.8653 41.819 20.115 41.819 20.3754C41.819 20.6358 41.7156 20.8856 41.5314 21.0697C41.3473 21.2539 41.0975 21.3573 40.8371 21.3573Z" fill="#F9F5F5"/>
<path id="Vector_6" d="M26.39 29.2119H23.8646C22.9351 29.2119 22.1816 29.9654 22.1816 30.8949V33.4203C22.1816 34.3497 22.9351 35.1032 23.8646 35.1032H26.39C27.3194 35.1032 28.0729 34.3497 28.0729 33.4203V30.8949C28.0729 29.9654 27.3194 29.2119 26.39 29.2119Z" fill="#F9F5F5"/>
<path id="Vector_7" d="M26.39 38.0479H23.8646C22.9351 38.0479 22.1816 38.8013 22.1816 39.7308V42.2562C22.1816 43.1857 22.9351 43.9391 23.8646 43.9391H26.39C27.3194 43.9391 28.0729 43.1857 28.0729 42.2562V39.7308C28.0729 38.8013 27.3194 38.0479 26.39 38.0479Z" fill="#F9F5F5"/>
<path id="Vector_8" d="M40.8378 43.9384H31.019C30.7586 43.9384 30.5088 43.8349 30.3247 43.6508C30.1406 43.4666 30.0371 43.2169 30.0371 42.9565C30.0371 42.6961 30.1406 42.4463 30.3247 42.2622C30.5088 42.0781 30.7586 41.9746 31.019 41.9746H40.8378C41.0982 41.9746 41.3479 42.0781 41.5321 42.2622C41.7162 42.4463 41.8197 42.6961 41.8197 42.9565C41.8197 43.2169 41.7162 43.4666 41.5321 43.6508C41.3479 43.8349 41.0982 43.9384 40.8378 43.9384Z" fill="#F9F5F5"/>
<path id="Vector_9" d="M40.8378 40.0116H31.019C30.7586 40.0116 30.5088 39.9082 30.3247 39.724C30.1406 39.5399 30.0371 39.2901 30.0371 39.0297C30.0371 38.7693 30.1406 38.5196 30.3247 38.3354C30.5088 38.1513 30.7586 38.0479 31.019 38.0479H40.8378C41.0982 38.0479 41.3479 38.1513 41.5321 38.3354C41.7162 38.5196 41.8197 38.7693 41.8197 39.0297C41.8197 39.2901 41.7162 39.5399 41.5321 39.724C41.3479 39.9082 41.0982 40.0116 40.8378 40.0116Z" fill="#F9F5F5"/>
<path id="Vector_10" d="M40.8378 35.1024H31.019C30.7586 35.1024 30.5088 34.999 30.3247 34.8148C30.1406 34.6307 30.0371 34.381 30.0371 34.1206C30.0371 33.8601 30.1406 33.6104 30.3247 33.4263C30.5088 33.2421 30.7586 33.1387 31.019 33.1387H40.8378C41.0982 33.1387 41.3479 33.2421 41.5321 33.4263C41.7162 33.6104 41.8197 33.8601 41.8197 34.1206C41.8197 34.381 41.7162 34.6307 41.5321 34.8148C41.3479 34.999 41.0982 35.1024 40.8378 35.1024Z" fill="#F9F5F5"/>
<path id="Vector_11" d="M40.8378 31.1757H31.019C30.7586 31.1757 30.5088 31.0722 30.3247 30.8881C30.1406 30.704 30.0371 30.4542 30.0371 30.1938C30.0371 29.9334 30.1406 29.6836 30.3247 29.4995C30.5088 29.3154 30.7586 29.2119 31.019 29.2119H40.8378C41.0982 29.2119 41.3479 29.3154 41.5321 29.4995C41.7162 29.6836 41.8197 29.9334 41.8197 30.1938C41.8197 30.4542 41.7162 30.704 41.5321 30.8881C41.3479 31.0722 41.0982 31.1757 40.8378 31.1757Z" fill="#F9F5F5"/>
</g>
</g>
<defs>
<clipPath id="clip0_522_975">
<rect width="64" height="64" fill="white"/>
</clipPath>
</defs>
</svg>
