<svg width="48" height="48" viewBox="0 0 48 48" fill="none" xmlns="http://www.w3.org/2000/svg">
<g clip-path="url(#clip0_3023_10610)">
<path d="M39 48.0005H9C4.029 48.0005 0 43.9715 0 39.0005V9.00049C0 4.02949 4.029 0.000488281 9 0.000488281H39C43.971 0.000488281 48 4.02949 48 9.00049V39.0005C48 43.9715 43.971 48.0005 39 48.0005Z" fill="#FBF4FF"/>
<path d="M30.498 11.7495C28.0185 11.7495 25.998 13.77 25.998 16.2495V19.749H34.998V16.2495C34.998 13.77 32.979 11.7495 30.498 11.7495Z" fill="#BE63F9"/>
<path d="M35.2495 20.7495H25.75C25.336 20.7495 25 20.4135 25 19.9995C25 19.5855 25.336 19.2495 25.75 19.2495H35.2495C35.6635 19.2495 35.9995 19.5855 35.9995 19.9995C35.9995 20.4135 35.6635 20.7495 35.2495 20.7495Z" fill="#BE63F9"/>
<path d="M30.498 23.7495C29.6715 23.7495 28.998 23.076 28.998 22.2495C28.998 21.423 29.6715 20.7495 30.498 20.7495C31.3245 20.7495 31.998 21.423 31.998 22.2495C31.998 23.0775 31.326 23.7495 30.498 23.7495Z" fill="#BE63F9"/>
<path d="M32.9492 21.7505C32.9822 21.9125 33.0002 22.079 33.0002 22.25V21.7505H32.9492Z" fill="#BE63F9"/>
<path d="M31.0005 25.7049V31.7514C31.0005 32.3034 30.552 32.7519 30 32.7519H15C14.448 32.7519 13.9995 32.3034 13.9995 31.7514V20.7519H23.1165C23.0475 20.5119 22.9995 20.2629 22.9995 20.0019C22.9995 19.1529 23.394 18.4029 24 17.8989V16.2519C24 16.0824 24.012 15.9174 24.0255 15.7524H15C13.3455 15.7524 12 17.0979 12 18.7524V31.7529C12 33.4074 13.3455 34.7529 15 34.7529H30C31.6545 34.7529 33 33.4074 33 31.7529V24.6699C32.4765 25.2144 31.785 25.5909 31.0005 25.7049Z" fill="#BE63F9"/>
</g>
<defs>
<clipPath id="clip0_3023_10610">
<rect width="48" height="48" fill="white" transform="translate(0 0.000488281)"/>
</clipPath>
</defs>
</svg>
