<svg width="56" height="56" viewBox="0 0 56 56" fill="none" xmlns="http://www.w3.org/2000/svg">
<rect width="56" height="56" rx="16" fill="#D1E0FF"/>
<g clip-path="url(#clip0_1501_7064)">
<path d="M19.6713 18.832C19.6706 18.832 19.6699 18.832 19.6693 18.832C19.4423 18.832 19.2288 18.9205 19.0676 19.0813C18.9046 19.2439 18.8148 19.4604 18.8148 19.6909V32.5689C18.8148 33.0411 19.2005 33.4263 19.6747 33.4275C21.6737 33.4322 25.0229 33.8489 27.3334 36.2668V22.7895C27.3334 22.6295 27.2925 22.4791 27.2153 22.3546C25.319 19.3007 21.6748 18.8367 19.6713 18.832Z" fill="#155EEF"/>
<path d="M37.1853 32.569V19.6909C37.1853 19.4604 37.0955 19.2439 36.9325 19.0813C36.7713 18.9205 36.5576 18.832 36.3309 18.832C36.3302 18.832 36.3294 18.832 36.3288 18.832C34.3253 18.8368 30.6812 19.3008 28.7848 22.3547C28.7076 22.4792 28.6668 22.6295 28.6668 22.7896V36.2668C30.9773 33.8489 34.3264 33.4322 36.3255 33.4275C36.7996 33.4263 37.1853 33.0411 37.1853 32.569Z" fill="#155EEF"/>
<path d="M39.1413 21.8018H38.5186V32.5687C38.5186 33.7745 37.5362 34.7577 36.3286 34.7607C34.633 34.7647 31.8372 35.0963 29.8572 36.9703C33.2817 36.1318 36.8917 36.6769 38.9491 37.1457C39.206 37.2042 39.4714 37.1438 39.6773 36.9797C39.8823 36.8161 40 36.5715 40 36.309V22.6604C40.0001 22.187 39.6148 21.8018 39.1413 21.8018Z" fill="#155EEF"/>
<path d="M17.4814 32.5687V21.8018H16.8587C16.3853 21.8018 16 22.187 16 22.6604V36.3087C16 36.5713 16.1177 36.8159 16.3227 36.9795C16.5284 37.1435 16.7936 37.2042 17.0509 37.1455C19.1083 36.6766 22.7184 36.1316 26.1427 36.9701C24.1628 35.0961 21.367 34.7646 19.6714 34.7606C18.4638 34.7577 17.4814 33.7745 17.4814 32.5687Z" fill="#155EEF"/>
</g>
<defs>
<clipPath id="clip0_1501_7064">
<rect width="24" height="24" fill="white" transform="translate(16 16)"/>
</clipPath>
</defs>
</svg>
