<svg width="112" height="72" viewBox="0 0 112 72" fill="none" xmlns="http://www.w3.org/2000/svg">
    <path
        d="M14.9538 42.1198C15.3818 41.2527 16.6182 41.2527 17.0462 42.1198L20.4308 48.9778C20.6008 49.3222 20.9293 49.5608 21.3093 49.6161L28.8776 50.7158C29.8345 50.8548 30.2166 52.0308 29.5241 52.7058L24.0477 58.044C23.7727 58.312 23.6472 58.6982 23.7121 59.0767L25.005 66.6144C25.1684 67.5674 24.1681 68.2942 23.3122 67.8442L16.5429 64.2854C16.203 64.1067 15.797 64.1067 15.4571 64.2854L8.68782 67.8442C7.83192 68.2942 6.83158 67.5674 6.99505 66.6144L8.28786 59.0767C8.35277 58.6982 8.2273 58.312 7.95233 58.044L2.47587 52.7058C1.78343 52.0308 2.16553 50.8548 3.12245 50.7158L10.6907 49.6161C11.0707 49.5608 11.3992 49.3222 11.5692 48.9778L14.9538 42.1198Z"
        fill="#FAC515" />
    <path
        d="M54.9538 26.1198C55.3818 25.2527 56.6182 25.2527 57.0462 26.1198L60.4308 32.9778C60.6008 33.3222 60.9293 33.5608 61.3093 33.6161L68.8776 34.7158C69.8345 34.8548 70.2166 36.0308 69.5241 36.7058L64.0477 42.044C63.7727 42.312 63.6472 42.6982 63.7121 43.0767L65.005 50.6144C65.1684 51.5674 64.1681 52.2942 63.3122 51.8442L56.5429 48.2854C56.203 48.1067 55.797 48.1067 55.4571 48.2854L48.6878 51.8442C47.8319 52.2942 46.8316 51.5674 46.995 50.6144L48.2879 43.0767C48.3528 42.6982 48.2273 42.312 47.9523 42.044L42.4759 36.7058C41.7834 36.0308 42.1655 34.8548 43.1225 34.7158L50.6907 33.6161C51.0707 33.5608 51.3992 33.3222 51.5692 32.9778L54.9538 26.1198Z"
        fill="#FAC515" />
    <path
        d="M94.9538 42.1198C95.3818 41.2527 96.6182 41.2527 97.0462 42.1198L100.431 48.9778C100.601 49.3222 100.929 49.5608 101.309 49.6161L108.878 50.7158C109.834 50.8548 110.217 52.0308 109.524 52.7058L104.048 58.044C103.773 58.312 103.647 58.6982 103.712 59.0767L105.005 66.6144C105.168 67.5674 104.168 68.2942 103.312 67.8442L96.5429 64.2854C96.203 64.1067 95.797 64.1067 95.4571 64.2854L88.6878 67.8442C87.8319 68.2942 86.8316 67.5674 86.995 66.6144L88.2879 59.0767C88.3528 58.6982 88.2273 58.312 87.9523 58.044L82.4759 52.7058C81.7834 52.0308 82.1655 50.8548 83.1225 50.7158L90.6907 49.6161C91.0707 49.5608 91.3992 49.3222 91.5692 48.9778L94.9538 42.1198Z"
        fill="#FAC515" />
    <path
        d="M26.7728 17.9251L24.978 17.0626C24.3622 16.7626 23.6407 16.8001 23.0424 17.1376C21.4764 18.0563 19.576 18.1313 17.9572 17.3438L16.1624 16.4813L17.6052 13.0688L19.4 13.9313C20.0159 14.2313 20.7549 14.1938 21.3356 13.8563C22.9017 12.9376 24.8021 12.8626 26.4209 13.6501L28.2157 14.5126L26.7728 17.9251Z"
        fill="#52BDF2" />
    <path
        d="M93.6908 19.8001L91.896 18.9376C91.2801 18.6376 90.5587 18.6751 89.9604 19.0126C88.3944 19.9313 86.494 20.0063 84.8751 19.2188L83.0803 18.3563L84.5232 14.9438L86.318 15.8063C86.9339 16.1063 87.6729 16.0688 88.2712 15.7313C89.8372 14.8126 91.7376 14.7376 93.3565 15.5251L95.1513 16.3876L93.7084 19.8001H93.6908Z"
        fill="#E7475E" />
    <path
        d="M43.2076 11.306L42.4686 9.35605C42.2046 8.68105 41.6592 8.1748 41.0081 7.9873C39.2837 7.4998 37.8584 6.16855 37.1721 4.40605L36.4331 2.45605L39.6884 1.0498L40.4274 2.9998C40.6914 3.6748 41.2369 4.18105 41.8879 4.36855C43.6123 4.85605 45.0376 6.1873 45.7239 7.9498L46.4629 9.88105L43.2076 11.306Z"
        fill="#E7475E" />
    <path
        d="M67.8075 12.1125L65.7488 9.07501L67.35 7.85625C67.8955 7.425 68.2474 6.75 68.2474 6.01875C68.2826 4.125 69.1624 2.325 70.6229 1.21875L72.2242 0L74.2829 3.0375L72.6817 4.25625C72.1362 4.6875 71.7843 5.3625 71.7843 6.09375C71.7491 7.9875 70.8693 9.78751 69.4088 10.8938L67.8075 12.1125Z"
        fill="#52BDF2" />
    <path
        d="M11.6579 6.84375C11.6579 5.80822 10.8701 4.96875 9.89829 4.96875C8.92648 4.96875 8.13867 5.80822 8.13867 6.84375C8.13867 7.87928 8.92648 8.71875 9.89829 8.71875C10.8701 8.71875 11.6579 7.87928 11.6579 6.84375Z"
        fill="#FDC4B6" />
    <path
        d="M101.398 6.84375C101.398 5.80822 100.611 4.96875 99.6388 4.96875C98.667 4.96875 97.8792 5.80822 97.8792 6.84375C97.8792 7.87928 98.667 8.71875 99.6388 8.71875C100.611 8.71875 101.398 7.87928 101.398 6.84375Z"
        fill="#FDC4B6" />
    <path
        d="M11.6579 63.0938C11.6579 62.0582 10.8701 61.2188 9.89829 61.2188C8.92648 61.2188 8.13867 62.0582 8.13867 63.0938C8.13867 64.1293 8.92648 64.9688 9.89829 64.9688C10.8701 64.9688 11.6579 64.1293 11.6579 63.0938Z"
        fill="#FDC4B6" />
    <path
        d="M103.158 61.2188C103.158 60.1832 102.37 59.3438 101.398 59.3438C100.426 59.3438 99.6387 60.1832 99.6387 61.2188C99.6387 62.2543 100.426 63.0938 101.398 63.0938C102.37 63.0938 103.158 62.2543 103.158 61.2188Z"
        fill="#FDC4B6" />
    <path
        d="M80.2829 31.2188C80.2829 30.1832 79.4951 29.3438 78.5233 29.3438C77.5515 29.3438 76.7637 30.1832 76.7637 31.2188C76.7637 32.2543 77.5515 33.0938 78.5233 33.0938C79.4951 33.0938 80.2829 32.2543 80.2829 31.2188Z"
        fill="#FDC4B6" />
</svg>