<svg xmlns="http://www.w3.org/2000/svg" width="17" height="16" viewBox="0 0 17 16" fill="none">
  <path fill-rule="evenodd" clip-rule="evenodd" d="M4.50002 7.19961V5.59961C4.50002 4.53875 4.92145 3.52133 5.6716 2.77119C6.42174 2.02103 7.43916 1.59961 8.50002 1.59961C9.5609 1.59961 10.5783 2.02103 11.3284 2.77119C12.0786 3.52133 12.5 4.53875 12.5 5.59961V7.19961C12.9243 7.19961 13.3313 7.36818 13.6314 7.66824C13.9315 7.9683 14.1 8.37529 14.1 8.79961V12.7996C14.1 13.2239 13.9315 13.6309 13.6314 13.931C13.3313 14.231 12.9243 14.3996 12.5 14.3996H4.50002C4.07568 14.3996 3.66871 14.231 3.36866 13.931C3.06859 13.6309 2.90002 13.2239 2.90002 12.7996V8.79961C2.90002 8.37529 3.06859 7.9683 3.36866 7.66824C3.66871 7.36818 4.07568 7.19961 4.50002 7.19961ZM10.9 5.59961V7.19961H6.10002V5.59961C6.10002 4.96309 6.35288 4.35264 6.80297 3.90255C7.25306 3.45247 7.8635 3.19961 8.50002 3.19961C9.1365 3.19961 9.74698 3.45247 10.1971 3.90255C10.6471 4.35264 10.9 4.96309 10.9 5.59961Z" fill="currentColor"/>
</svg>