<svg width="80" height="80" viewBox="0 0 80 80" fill="none" xmlns="http://www.w3.org/2000/svg">
<path d="M15.4434 7.12109C16.8325 7.12109 18.0864 7.6807 19.0031 8.59736C19.9195 9.51356 20.4791 10.768 20.4791 12.1665V67.8369C20.4791 69.7277 21.5208 71.3773 23.0645 72.2455C23.788 72.6506 24.6274 72.8823 25.5245 72.8823H71.8546V12.1957C71.8546 11.752 71.7966 11.3276 71.681 10.922C71.1214 8.74198 69.134 7.12109 66.7802 7.12109H15.4434Z" fill="#F5F8FF"/>
<path d="M32.9761 19.95C32.6911 19.95 32.4261 19.9125 32.1811 19.8375C31.9411 19.7625 31.7211 19.65 31.5211 19.5C31.3261 19.345 31.1511 19.155 30.9961 18.93L31.5511 18.2925C31.7961 18.6425 32.0311 18.885 32.2561 19.02C32.4811 19.155 32.7486 19.2225 33.0586 19.2225C33.2486 19.2225 33.4211 19.1925 33.5761 19.1325C33.7311 19.0725 33.8536 18.99 33.9436 18.885C34.0336 18.78 34.0786 18.66 34.0786 18.525C34.0786 18.435 34.0636 18.35 34.0336 18.27C34.0036 18.19 33.9561 18.1175 33.8911 18.0525C33.8311 17.9875 33.7511 17.9275 33.6511 17.8725C33.5561 17.8175 33.4436 17.77 33.3136 17.73C33.1836 17.685 33.0336 17.6475 32.8636 17.6175C32.5936 17.5625 32.3586 17.49 32.1586 17.4C31.9586 17.31 31.7911 17.1975 31.6561 17.0625C31.5211 16.9275 31.4211 16.775 31.3561 16.605C31.2911 16.43 31.2586 16.235 31.2586 16.02C31.2586 15.81 31.3036 15.615 31.3936 15.435C31.4886 15.255 31.6161 15.1 31.7761 14.97C31.9411 14.835 32.1336 14.7325 32.3536 14.6625C32.5736 14.5875 32.8111 14.55 33.0661 14.55C33.3361 14.55 33.5836 14.585 33.8086 14.655C34.0336 14.725 34.2336 14.83 34.4086 14.97C34.5836 15.105 34.7286 15.2725 34.8436 15.4725L34.2736 16.035C34.1736 15.87 34.0611 15.7325 33.9361 15.6225C33.8111 15.5075 33.6736 15.4225 33.5236 15.3675C33.3736 15.3075 33.2136 15.2775 33.0436 15.2775C32.8486 15.2775 32.6786 15.3075 32.5336 15.3675C32.3886 15.4275 32.2736 15.5125 32.1886 15.6225C32.1086 15.7275 32.0686 15.8525 32.0686 15.9975C32.0686 16.1025 32.0886 16.2 32.1286 16.29C32.1686 16.375 32.2286 16.4525 32.3086 16.5225C32.3936 16.5875 32.5061 16.6475 32.6461 16.7025C32.7861 16.7525 32.9536 16.7975 33.1486 16.8375C33.4236 16.8975 33.6686 16.975 33.8836 17.07C34.0986 17.16 34.2811 17.2675 34.4311 17.3925C34.5811 17.5175 34.6936 17.6575 34.7686 17.8125C34.8486 17.9675 34.8886 18.135 34.8886 18.315C34.8886 18.65 34.8111 18.94 34.6561 19.185C34.5011 19.43 34.2811 19.62 33.9961 19.755C33.7111 19.885 33.3711 19.95 32.9761 19.95ZM38.0763 19.92C37.6713 19.92 37.3088 19.8325 36.9888 19.6575C36.6688 19.4775 36.4163 19.2325 36.2313 18.9225C36.0513 18.6075 35.9613 18.2525 35.9613 17.8575V14.6175H36.7713V17.79C36.7713 18.045 36.8313 18.275 36.9513 18.48C37.0713 18.68 37.2288 18.84 37.4238 18.96C37.6238 19.08 37.8413 19.14 38.0763 19.14C38.3263 19.14 38.5513 19.08 38.7513 18.96C38.9563 18.84 39.1188 18.68 39.2388 18.48C39.3588 18.275 39.4188 18.045 39.4188 17.79V14.6175H40.1913V17.8575C40.1913 18.2525 40.0988 18.6075 39.9138 18.9225C39.7338 19.2325 39.4838 19.4775 39.1638 19.6575C38.8438 19.8325 38.4813 19.92 38.0763 19.92ZM41.588 19.875V14.625H43.823C44.123 14.625 44.398 14.7 44.648 14.85C44.903 14.995 45.1055 15.195 45.2555 15.45C45.4055 15.7 45.4805 15.9825 45.4805 16.2975C45.4805 16.5825 45.4055 16.8475 45.2555 17.0925C45.1055 17.3375 44.9055 17.535 44.6555 17.685C44.4055 17.83 44.128 17.9025 43.823 17.9025H42.398V19.875H41.588ZM44.708 19.875L43.373 17.505L44.2055 17.3175L45.6905 19.8825L44.708 19.875ZM42.398 17.1225H43.898C44.043 17.1225 44.173 17.0875 44.288 17.0175C44.403 16.9425 44.493 16.8425 44.558 16.7175C44.623 16.5875 44.6555 16.445 44.6555 16.29C44.6555 16.115 44.613 15.9625 44.528 15.8325C44.448 15.6975 44.333 15.5925 44.183 15.5175C44.038 15.4425 43.873 15.405 43.688 15.405H42.398V17.1225ZM48.1208 19.875L46.0208 14.625H46.9433L48.1958 17.8125C48.2558 17.9675 48.3083 18.1075 48.3533 18.2325C48.4033 18.3575 48.4458 18.4725 48.4808 18.5775C48.5158 18.6775 48.5483 18.7725 48.5783 18.8625C48.6083 18.9525 48.6383 19.0425 48.6683 19.1325L48.4733 19.14C48.5083 19.02 48.5458 18.895 48.5858 18.765C48.6258 18.635 48.6708 18.4925 48.7208 18.3375C48.7758 18.1825 48.8408 18.0075 48.9158 17.8125L50.0783 14.625H51.0233L48.9083 19.875H48.1208ZM51.9371 19.875V14.625H55.2446V15.405H52.7471V19.095H55.2446V19.875H51.9371ZM52.3046 17.5725V16.7925H54.8321V17.5725H52.3046ZM57.9541 19.875V17.2575L58.0066 17.625L55.8841 14.625H56.8591L58.4791 16.95L58.2916 16.9275L59.7541 14.625H60.6841L58.6516 17.7075L58.7641 17.1975V19.875H57.9541Z" fill="#E36477"/>
<path d="M20.4778 17.2092V12.1653C20.4778 10.7668 19.9183 9.51231 19.0019 8.59653C18.0853 7.67963 16.8313 7.12012 15.4419 7.12012C14.053 7.12012 12.7987 7.67963 11.8824 8.59653C10.9658 9.51231 10.4062 10.7668 10.4062 12.1653V17.2092H20.4778Z" fill="url(#paint0_linear_2396_12299)"/>
<path d="M25.5234 72.8824H72.5723C75.3589 72.8824 77.6178 70.6235 77.6178 67.837V64.0361H30.5593V67.837C30.5593 69.2356 29.9998 70.49 29.0833 71.4062C28.1668 72.3228 26.9127 72.8824 25.5234 72.8824Z" fill="url(#paint1_linear_2396_12299)"/>
<path d="M54.998 39.5284V40.4716C54.998 40.5563 54.8435 40.625 54.6528 40.625H29.0933C28.9026 40.625 28.748 40.5563 28.748 40.4716V39.5284C28.748 39.4437 28.9026 39.375 29.0933 39.375H54.6528C54.8435 39.375 54.998 39.4437 54.998 39.5284Z" fill="#CFCFFF"/>
<path d="M54.998 33.9801V35.3949C54.998 35.522 54.8435 35.625 54.6528 35.625H29.0933C28.9026 35.625 28.748 35.522 28.748 35.3949V33.9801C28.748 33.853 28.9026 33.75 29.0933 33.75H54.6528C54.8435 33.75 54.998 33.853 54.998 33.9801Z" fill="#CFCFFF"/>
<path d="M54.998 28.3551V29.7699C54.998 29.897 54.8435 30 54.6528 30H29.0933C28.9026 30 28.748 29.897 28.748 29.7699V28.3551C28.748 28.228 28.9026 28.125 29.0933 28.125H54.6528C54.8435 28.125 54.998 28.228 54.998 28.3551Z" fill="#CFCFFF"/>
<path d="M57.498 44.6051V46.0199C57.498 46.147 57.344 46.25 57.1539 46.25H29.0922C28.9021 46.25 28.748 46.147 28.748 46.0199V44.6051C28.748 44.478 28.9021 44.375 29.0922 44.375H57.1539C57.344 44.375 57.498 44.478 57.498 44.6051Z" fill="#CFCFFF"/>
<path d="M63.748 50.8551V52.2699C63.748 52.397 63.5929 52.5 63.4016 52.5H29.0945C28.9031 52.5 28.748 52.397 28.748 52.2699V50.8551C28.748 50.728 28.9031 50.625 29.0945 50.625H63.4016C63.5929 50.625 63.748 50.728 63.748 50.8551Z" fill="#CFCFFF"/>
<path d="M54.998 56.4034V57.3466C54.998 57.4313 54.8435 57.5 54.6528 57.5H29.0933C28.9026 57.5 28.748 57.4313 28.748 57.3466V56.4034C28.748 56.3187 28.9026 56.25 29.0933 56.25H54.6528C54.8435 56.25 54.998 56.3187 54.998 56.4034Z" fill="#CFCFFF"/>
<defs>
<linearGradient id="paint0_linear_2396_12299" x1="19.7023" y1="16.4323" x2="11.1669" y2="7.91181" gradientUnits="userSpaceOnUse">
<stop stop-color="#EB595A"/>
<stop offset="1" stop-color="#F18875"/>
</linearGradient>
<linearGradient id="paint1_linear_2396_12299" x1="73.6065" y1="72.2013" x2="71.136" y2="57.6528" gradientUnits="userSpaceOnUse">
<stop stop-color="#EB595A"/>
<stop offset="1" stop-color="#F18875"/>
</linearGradient>
</defs>
</svg>
