<svg xmlns="http://www.w3.org/2000/svg" width="247" height="116" viewBox="0 0 247 116" fill="none">
  <g filter="url(#filter0_d_1505_12210)">
    <path d="M203.116 51.5317C207.672 51.2925 211.988 51.5317 216.305 53.4451C224.938 57.511 229.974 67.3172 228.055 76.4059C226.137 86.4512 217.984 93.3873 207.912 93.8657C185.37 94.8224 162.588 95.5399 140.047 96.4966C112.469 97.6925 84.6515 98.6492 57.0738 99.8451C54.436 99.8451 53.7166 99.3667 53.7166 96.7358C53.9564 87.1688 53.9564 77.8409 53.7166 68.2739C53.7166 65.1646 54.6758 63.0121 57.3136 61.577C59.2321 60.3811 60.9107 58.9461 62.8292 57.511C63.7884 57.0327 64.7476 56.5543 65.7068 56.5543C70.7428 56.7935 75.7787 56.076 80.5748 55.8368C94.2437 55.3585 108.152 54.8801 121.821 54.1626C126.618 53.9234 131.174 53.6842 135.97 53.6842C143.644 53.4451 151.318 53.2059 158.991 52.7275C171.941 52.2492 184.89 52.01 197.6 51.0533C199.519 50.8141 201.437 51.0533 203.116 51.5317Z" fill="#2970FF"/>
    <path d="M203.115 51.5316C194.003 52.9667 184.65 52.7275 175.298 53.2059C146.042 54.6409 116.785 55.5976 87.5291 56.7935C79.3757 57.0327 70.9825 57.2719 62.8291 57.511C65.7068 54.6409 68.8242 52.01 70.7427 48.1832C76.2582 37.8987 74.8194 28.0925 68.8242 18.7646C68.3446 17.8079 67.1456 17.0904 66.9058 15.6554C69.0641 15.4162 70.9825 15.177 73.1407 15.177C96.8815 14.2203 120.622 13.2636 144.603 12.3069C159.231 11.8286 174.099 11.3502 188.967 10.3935C194.962 10.1543 200.717 9.67598 205.993 12.7853C213.427 17.0904 217.024 23.7873 216.545 32.1585C216.065 40.2904 211.988 46.0306 205.034 49.8574C204.315 50.3358 203.115 50.3358 203.115 51.5316Z" fill="#F2F4F7"/>
    <path d="M35.0116 68.2735C31.8941 68.2735 29.0165 68.2735 25.899 68.2735C24.7 68.2735 23.9805 68.0344 23.9805 66.5993C23.7407 61.5766 24.2204 57.0323 28.2971 53.4447C31.6543 50.3354 34.7718 47.2261 37.8893 43.8777C42.4456 38.855 41.966 32.1581 37.1699 28.8096C32.6136 25.4612 26.1388 27.8529 24.7 33.3539C24.2204 35.0282 23.9805 36.9416 23.9805 38.6158C24.2204 41.0076 23.5009 42.2034 20.8631 41.9643C14.8679 41.7251 8.87278 41.7251 3.11744 41.9643C0.959187 41.9643 0.23977 41.2467 0.23977 39.0942C-0.479647 25.7003 6.71453 15.8942 21.3427 11.589C32.6136 8.24054 43.8844 8.7189 54.9155 13.7416C68.5844 20.4385 74.3398 40.0509 60.431 52.0096C57.3136 54.6405 53.9563 57.0323 50.8388 59.4241C48.4407 61.3375 45.8029 63.0117 46.2825 66.5993C46.5223 68.2735 45.0835 68.0344 44.1242 68.0344C41.2466 68.2735 38.1291 68.2735 35.0116 68.2735Z" fill="#F2F4F7"/>
    <path d="M35.2515 100.084C31.8942 100.084 28.2971 100.084 24.9398 100.084C23.2612 100.084 22.5417 99.6061 22.5417 97.6927C22.5417 91.2349 22.5417 84.538 22.5417 78.0803C22.5417 76.4061 23.0214 75.9277 24.7 75.9277C31.6544 75.9277 38.3689 75.9277 45.3233 75.9277C47.4816 75.9277 48.4408 76.6453 48.201 79.037C47.9612 85.0164 47.9612 90.9958 48.201 96.736C48.201 99.3669 47.2418 100.084 44.8437 100.084C41.7262 99.8453 38.6087 100.084 35.2515 100.084Z" fill="white"/>
    <path d="M147.481 112.521C145.322 113 142.205 113.478 142.205 110.369C141.965 106.781 145.322 107.499 147.481 107.259C159.471 106.781 171.701 106.542 183.691 106.063C185.13 106.063 186.569 106.063 187.288 107.738C188.248 109.89 186.809 111.565 183.931 111.565C175.538 111.804 167.145 112.043 158.512 112.282C155.154 112.76 151.317 112.521 147.481 112.521Z" fill="#F2F4F7"/>
    <path d="M80.1893 6.46359C78.031 6.94194 74.9135 7.4203 74.9135 4.31102C74.6737 0.723392 78.031 1.44091 80.1893 1.20174C92.1796 0.723385 104.41 0.48421 116.4 0.00585938C117.839 0.00585938 119.278 0.00586123 119.997 1.68009C120.956 3.83267 119.517 5.5069 116.64 5.5069C108.247 5.74607 99.8533 5.98525 91.2203 6.22442C87.8631 6.70277 84.0262 6.46359 80.1893 6.46359Z" fill="#F2F4F7"/>
    <path d="M236.928 48.9009C234.53 48.9009 232.372 48.9009 229.974 48.9009C228.535 48.9009 227.576 48.1834 227.576 46.7484C227.576 45.0741 228.295 44.1174 229.734 43.8783C234.53 43.6391 239.326 43.3999 244.122 43.3999C245.801 43.3999 247 44.1174 247 46.0308C247 47.7051 245.801 48.6618 244.122 48.6618C241.724 48.6618 239.326 48.6618 236.928 48.9009Z" fill="white"/>
    <path d="M147.001 74.7315C146.042 77.8408 145.082 80.9501 144.603 84.0594C144.123 86.9295 141.965 85.7336 140.526 86.212C138.848 86.6903 138.608 85.2553 138.128 84.0594C137.409 81.4285 136.689 79.0367 135.49 76.4058C135.49 79.0367 135.49 81.6676 135.49 84.2986C135.49 87.647 133.092 86.212 131.653 86.4511C130.215 86.6903 129.016 86.4511 129.255 84.5377C129.495 79.0367 129.255 73.7748 129.255 68.2738C129.255 66.5996 129.735 66.1212 131.414 66.1212C138.608 65.6429 138.608 65.4037 140.526 72.579C140.766 73.7748 141.246 75.2099 141.485 76.6449C143.164 74.014 143.644 70.9047 144.363 68.0346C144.843 66.3604 145.562 65.6429 147.241 65.6429C153.955 65.1645 153.955 65.1645 153.955 71.8614C153.955 75.6882 153.716 79.5151 153.955 83.3419C154.195 87.4078 151.317 85.7336 149.639 86.212C147.241 86.6903 147.481 85.2553 147.481 83.581C147.481 80.7109 147.481 77.8408 147.481 75.2099C147.241 74.7316 147.001 74.7315 147.001 74.7315Z" fill="#FCFCFC"/>
    <path d="M157.552 74.7313C157.552 72.3396 157.552 69.7086 157.552 67.3169C157.552 65.6427 157.792 64.9251 159.711 64.9251C164.267 64.9251 168.823 64.686 173.38 64.4468C174.819 64.4468 175.538 64.9251 175.298 66.3602C175.058 67.5561 176.018 69.2303 173.619 69.4695C171.221 69.4695 168.584 69.7086 166.186 69.7086C164.986 69.7086 164.027 69.7086 164.267 71.3829C164.267 72.8179 165.466 72.5787 166.186 72.5787C167.864 72.5787 169.303 72.5787 170.982 72.3396C172.42 72.3396 173.859 71.8612 173.859 74.253C173.859 76.4055 173.38 77.3622 171.221 77.1231C169.543 77.1231 167.864 77.1231 166.186 77.1231C164.986 77.1231 164.267 77.3622 164.267 78.7973C164.267 80.2323 165.226 80.2323 166.186 80.2323C168.584 79.9932 171.221 79.9932 173.619 79.754C175.058 79.5148 175.778 79.9932 175.538 81.6674C175.298 82.8633 176.497 84.7767 173.859 84.7767C169.063 84.7767 164.267 85.0158 159.471 85.4942C157.792 85.4942 157.552 84.7767 157.552 83.5808C157.792 80.4715 157.552 77.6014 157.552 74.7313Z" fill="white"/>
    <path d="M105.754 66.8388C108.152 66.8388 110.79 67.078 113.188 66.8388C114.867 66.5996 115.586 67.3171 115.346 68.9914C115.107 70.1872 116.306 72.1006 113.428 72.3398C108.632 72.579 108.632 72.579 108.632 77.3625C108.632 79.9934 108.632 82.8635 108.632 85.4945C108.632 89.0821 105.994 87.4079 104.315 87.8862C102.637 88.3646 101.917 87.647 101.917 85.7336C102.157 82.6244 101.678 79.5151 101.917 76.4058C102.157 73.5357 101.198 72.3398 98.3203 73.0573C95.6824 73.5357 94.7232 72.579 94.963 69.9481C95.2028 68.2738 95.4426 67.7955 97.1213 67.7955C100.239 67.3171 102.877 67.078 105.754 66.8388Z" fill="white"/>
    <path d="M118.464 76.645C118.464 74.0141 118.464 71.144 118.464 68.5131C118.224 64.9254 121.102 66.5997 122.781 66.3605C124.459 65.8821 125.179 66.5997 125.179 68.5131C124.939 73.7749 124.939 79.0368 125.179 84.5378C125.179 88.3646 122.301 86.4512 120.622 86.9295C118.704 87.4079 118.464 86.212 118.464 84.5378C118.704 81.9069 118.464 79.2759 118.464 76.645Z" fill="#FCFCFC"/>
    <path d="M178.655 70.1873C178.655 69.4698 178.655 68.5131 178.416 67.7955C177.696 64.9254 178.416 63.7295 181.773 63.9687C184.411 63.9687 185.85 64.2079 185.13 67.3172C184.651 69.7089 184.651 72.3399 184.651 74.9708C184.651 76.4058 184.171 76.8842 182.492 77.1234C179.615 77.3625 178.655 76.4058 178.895 73.5357C178.895 72.579 178.895 71.3832 178.655 70.1873C178.895 70.1873 178.895 70.1873 178.655 70.1873Z" fill="white"/>
    <path d="M181.773 84.299C179.854 84.5382 178.655 84.5382 178.895 82.1465C178.895 79.9939 178.895 78.3197 182.013 78.798C183.451 79.0372 185.37 78.0805 185.13 80.9506C184.89 83.5815 184.411 85.0166 181.773 84.299Z" fill="white"/>
    <path d="M122.78 47.9445C118.944 48.1836 115.826 49.1403 113.428 45.7919C112.948 45.0744 112.229 45.0744 111.51 45.0744C104.795 44.1177 102.637 41.7259 102.877 34.5506C103.116 29.0496 106.234 25.7012 112.229 25.2228C116.306 24.7445 120.143 25.462 122.301 29.2888C124.459 32.6372 124.219 38.6166 121.342 41.4867C119.423 43.4001 119.423 44.596 121.581 46.2702C121.821 46.5094 122.061 46.9878 122.78 47.9445Z" fill="#155EEF"/>
    <path d="M169.303 37.6595C171.701 37.6595 173.859 37.6595 175.778 37.6595C177.216 37.6595 178.176 37.8987 178.176 39.5729C178.176 41.008 178.176 42.2038 176.257 42.2038C171.221 42.2038 166.185 42.6822 161.149 42.6822C158.511 42.6822 159.231 41.008 160.19 39.8121C162.588 36.2245 165.226 32.3977 168.104 28.0925C165.706 28.0925 163.787 28.0925 161.869 28.0925C160.67 28.0925 159.711 27.8533 159.95 26.4183C159.95 25.2224 159.471 23.5482 161.389 23.5482C166.425 23.309 171.701 23.0698 176.737 23.0698C178.655 23.0698 177.696 24.7441 177.216 25.7008C175.058 29.0492 172.66 32.3977 170.502 35.7461C170.262 36.2245 170.022 36.7028 169.303 37.6595Z" fill="#155EEF"/>
    <path d="M145.802 31.4408C145.802 32.1583 145.802 33.115 145.802 33.8325C145.802 42.2037 138.848 46.748 130.934 43.1604C128.536 41.9645 126.857 40.2903 126.857 37.4202C126.857 33.8325 126.618 30.2449 126.857 26.8965C126.857 23.3088 129.735 25.2222 131.414 24.9831C133.572 24.2655 133.092 25.9398 133.092 27.1356C133.092 30.0057 133.092 32.8758 133.092 35.9851C133.092 37.8985 133.572 39.3336 135.73 39.5727C137.888 39.8119 139.087 38.616 139.567 36.7026C140.047 33.5934 139.807 30.2449 139.807 27.1356C139.807 23.7872 141.965 24.9831 143.644 24.7439C145.562 24.5047 146.282 25.2222 146.042 27.1356C145.562 28.3315 145.802 29.7666 145.802 31.4408Z" fill="#155EEF"/>
    <path d="M156.353 33.5942C156.353 35.5076 156.353 37.6602 156.353 39.5736C156.353 42.9221 154.195 44.1179 151.317 43.1612C150.358 42.6829 150.358 41.9654 150.358 41.2478C150.358 36.2252 150.358 30.9633 150.358 25.9406C150.358 23.0705 152.516 24.2664 153.955 24.0272C155.394 23.788 156.593 24.0272 156.593 25.9406C156.353 28.3324 156.353 30.9633 156.353 33.5942Z" fill="#155EEF"/>
    <path d="M109.112 35.2672C109.112 31.4404 110.311 30.0054 113.188 30.0054C115.826 30.0054 117.265 31.6796 117.265 34.7889C117.265 38.3765 115.826 40.2899 112.948 40.2899C110.311 40.2899 109.112 38.8549 109.112 35.2672Z" fill="white"/>
  </g>
  <defs>
    <filter id="filter0_d_1505_12210" x="0.190674" y="0.00585938" width="246.809" height="115.864" filterUnits="userSpaceOnUse" color-interpolation-filters="sRGB">
      <feFlood flood-opacity="0" result="BackgroundImageFix"/>
      <feColorMatrix in="SourceAlpha" type="matrix" values="0 0 0 0 0 0 0 0 0 0 0 0 0 0 0 0 0 0 127 0" result="hardAlpha"/>
      <feOffset dy="3"/>
      <feComposite in2="hardAlpha" operator="out"/>
      <feColorMatrix type="matrix" values="0 0 0 0 0.0258165 0 0 0 0 0.231523 0 0 0 0 0.645833 0 0 0 1 0"/>
      <feBlend mode="normal" in2="BackgroundImageFix" result="effect1_dropShadow_1505_12210"/>
      <feBlend mode="normal" in="SourceGraphic" in2="effect1_dropShadow_1505_12210" result="shape"/>
    </filter>
  </defs>
</svg>