<svg width="56" height="56" viewBox="0 0 56 56" fill="none" xmlns="http://www.w3.org/2000/svg">
    <rect width="56" height="56" rx="16" fill="#CCFBEF" />
    <path
        d="M38.8912 23.6093L28.5618 19.4378C28.2015 19.2916 27.7985 19.2916 27.4382 19.4378L17.1088 23.6093C16.8316 23.7213 16.5941 23.9135 16.427 24.1613C16.2598 24.4091 16.1704 24.7012 16.1704 25.0002C16.1704 25.2991 16.2598 25.5913 16.427 25.8391C16.5941 26.0869 16.8316 26.2791 17.1088 26.3911L27.4382 30.5627C27.7984 30.709 28.2016 30.709 28.5618 30.5627L38.8912 26.3912C39.1684 26.2792 39.4059 26.087 39.573 25.8392C39.7402 25.5914 39.8296 25.2993 39.8296 25.0003C39.8296 24.7014 39.7402 24.4092 39.573 24.1614C39.4059 23.9136 39.1684 23.7213 38.8912 23.6093Z"
        fill="#15B79E" />
    <path
        d="M38.5 30.4998C38.3674 30.4998 38.2402 30.4471 38.1464 30.3533C38.0527 30.2596 38 30.1324 38 29.9998V26.0098C38 25.8772 38.0527 25.75 38.1464 25.6562C38.2402 25.5624 38.3674 25.5098 38.5 25.5098C38.6326 25.5098 38.7598 25.5624 38.8536 25.6562C38.9473 25.75 39 25.8772 39 26.0098V29.9998C39 30.1324 38.9473 30.2596 38.8536 30.3533C38.7598 30.4471 38.6326 30.4998 38.5 30.4998Z"
        fill="#15B79E" />
    <path
        d="M38.5 32.5C39.3284 32.5 40 31.8284 40 31C40 30.1716 39.3284 29.5 38.5 29.5C37.6716 29.5 37 30.1716 37 31C37 31.8284 37.6716 32.5 38.5 32.5Z"
        fill="#15B79E" />
    <path
        d="M34.25 29.3423V32.5948C34.25 32.887 34.1645 33.1728 34.0042 33.4171C33.8438 33.6614 33.6156 33.8535 33.3475 33.9698L28.5975 36.0348C28.4091 36.1172 28.2057 36.1598 28 36.1598C27.7943 36.1598 27.5909 36.1172 27.4025 36.0348L22.6525 33.9698C22.3844 33.8535 22.1562 33.6614 21.9958 33.4171C21.8355 33.1728 21.75 32.887 21.75 32.5948V29.3423L27.065 31.4898C27.6655 31.7331 28.337 31.7331 28.9375 31.4898L34.25 29.3423Z"
        fill="#15B79E" />
</svg>