<svg width="107" height="93" viewBox="0 0 107 93" fill="none" xmlns="http://www.w3.org/2000/svg">
<g id="Frame" clip-path="url(#clip0_1844_8831)">
<g id="Group">
<g id="Group_2">
<path id="Vector" d="M16.4761 70.6496C16.4761 70.6496 14.4799 65.572 22.7192 58.6992L22.5987 70.0601L16.4761 70.6496Z" fill="#66192D"/>
<g id="Group_3">
<path id="Vector_2" d="M16.2083 47.0301C13.2742 41.0549 10.8895 36.7544 9.37563 37.4242C8.97371 37.5984 8.78615 38.1209 8.90673 38.5764C9.69717 41.698 12.9259 47.499 12.9259 47.499L16.2083 47.0301Z" fill="#F9B384"/>
<path id="Vector_3" d="M19.946 55.5772L14.788 58.9131C12.5239 57.8949 10.5545 55.8317 9.18793 52.0135C9.00036 51.4776 9.04056 50.8747 9.3219 50.3924L10.3937 48.5436C10.7822 47.8871 10.9564 47.1235 10.9162 46.3598L10.809 44.1359C10.7956 43.9751 10.8626 43.8144 10.9698 43.7072L11.7602 42.8899C11.9076 42.7426 12.1219 42.7292 12.2827 42.8632L13.944 44.2297L13.6224 44.2029C13.6224 44.2029 13.8904 47.0833 16.0339 47.2307L17.1459 48.6508L19.946 55.5772Z" fill="#F9B384"/>
<path id="Vector_4" d="M20.6428 55.135L19.9462 55.5772L17.1863 48.6374L16.0744 47.2172C13.9308 47.0699 13.6628 44.1895 13.6628 44.1895L13.9844 44.2162L16.5031 44.3636C17.1997 44.4038 17.8562 44.712 18.3653 45.2344L20.0801 47.0029C20.4151 47.3512 20.6562 47.7665 20.7902 48.2488C21.4735 50.5532 21.3395 52.8441 20.6428 55.135Z" fill="#F9B384"/>
<path id="Vector_5" d="M23.724 56.2064L22.5585 67.2324C22.5585 67.2324 19.2225 69.8716 19.0618 70.1396C18.9814 70.2602 17.8426 67.5539 16.5833 64.4725C14.9622 60.5203 13.1536 55.9384 13.1536 55.9384L20.3881 51.8389L22.9336 55.148L23.724 56.2064Z" fill="#F9B384"/>
<path id="Vector_6" d="M23.724 56.2061L22.5584 67.2321C22.5584 67.2321 19.2225 69.8714 19.0618 70.1393C18.9814 70.2599 17.8426 67.5536 16.5833 64.4723L22.9336 55.1611L23.724 56.2061Z" fill="#E28B6D"/>
<g id="Group_4">
<path id="Vector_7" d="M17.2934 49.0132C17.1327 48.8256 16.3958 47.8476 16.168 47.5395C13.6226 47.3519 13.4216 44.2303 13.4216 44.2035L13.4082 43.949H13.6628C17.7891 43.8552 18.6599 44.9538 19.1824 45.6237C19.2762 45.7442 19.3566 45.838 19.4236 45.905L19.0887 46.2801C18.9815 46.1863 18.8877 46.0658 18.7805 45.9318C18.2982 45.3155 17.5748 44.4045 13.9307 44.4447C14.0379 45.1414 14.4666 46.9902 16.302 47.0572H16.4226L16.4896 47.1509C16.8379 47.6065 17.5212 48.5309 17.6685 48.6916L17.2934 49.0132Z" fill="#E28B6D"/>
</g>
<g id="Group_5">
<path id="Vector_8" d="M15.6724 49.8297C15.4179 49.8297 15.1901 49.7226 15.0427 49.602C14.6944 49.3206 12.3633 47.4852 12.3633 47.4852L12.6714 47.0967C12.6714 47.0967 15.0159 48.9455 15.3643 49.2268C15.4447 49.2938 15.6322 49.3876 15.8466 49.3072C16.1413 49.1867 16.3691 48.7579 16.4629 48.0747L16.9586 48.1417C16.7978 49.2536 16.3691 49.6422 16.0341 49.7627C15.9002 49.8029 15.7796 49.8297 15.6724 49.8297Z" fill="#E28B6D"/>
</g>
<g id="Group_6">
<path id="Vector_9" d="M13.4484 44.3101C13.2341 44.0957 11.4254 43.8278 11.0771 43.9349L10.9431 43.4526C11.3852 43.3321 13.5824 43.5598 13.8771 44.0555L13.4484 44.3101Z" fill="#E28B6D"/>
</g>
<g id="Group_7">
<path id="Vector_10" d="M15.5652 52.5362C14.8418 52.5362 13.9441 51.9468 13.8102 51.853L11.7068 50.4731L11.9747 50.0577L14.0781 51.4377C14.614 51.7994 15.5384 52.2147 15.8332 51.9468C15.9403 51.853 15.9805 51.7056 15.9805 51.4913C15.9671 50.875 15.4714 49.9774 15.0695 49.6424L15.391 49.2539C15.8867 49.6692 16.4628 50.7142 16.4762 51.4779C16.4896 51.8262 16.369 52.1209 16.1681 52.3085C15.9939 52.4827 15.793 52.5362 15.5652 52.5362Z" fill="#E28B6D"/>
</g>
<g id="Group_8">
<path id="Vector_11" d="M14.0245 54.239C13.4082 54.239 12.658 53.7567 12.4704 53.6361L10.6216 52.4303L10.8895 52.015L12.7384 53.2342C13.2073 53.5423 13.9977 53.904 14.2389 53.6897C14.3192 53.6093 14.3594 53.4887 14.3594 53.3146C14.346 52.7519 13.8771 51.9614 13.569 51.7069L13.8905 51.3184C14.3326 51.6935 14.8417 52.6179 14.8551 53.3012C14.8551 53.6227 14.7613 53.8772 14.5738 54.0514C14.4264 54.1854 14.2389 54.239 14.0245 54.239Z" fill="#E28B6D"/>
</g>
</g>
<path id="Vector_12" d="M59.2003 84.4365L58.3295 108.739C58.3161 109.396 58.2893 110.052 58.2625 110.695C57.807 124.039 56.9495 136.847 55.7438 149.239C54.3773 163.266 52.5954 176.744 50.492 189.82H36.6928C34.8574 160.667 31.7626 125.66 37.4431 93.9888L40.8996 85.5217L59.2003 84.4365Z" fill="#66192D"/>
<path id="Vector_13" d="M78.1708 95.3545C81.6273 124.293 84.6283 156.701 83.302 186.912L68.3238 189.819C64.2376 164.619 57.0835 132.211 56.1725 102.991L54.1763 79.251L76.6301 85.5343L78.1708 95.3545Z" fill="#66192D"/>
<path id="Vector_14" d="M60.915 24.9111H50.9072V37.317H60.915V24.9111Z" fill="#F9B384"/>
<path id="Vector_15" d="M50.8402 32.548C54.4977 37.6256 59.16 35.4017 60.9016 31.9854L72.7984 84.8511C61.6921 89.6339 51.0144 90.344 41.02 84.6635L47.3435 34.6112L50.8402 32.548Z" fill="white"/>
<path id="Vector_16" d="M66.4347 17.2349C68.6453 12.854 69.141 6.10173 63.9964 5.82039C59.5217 1.41268 52.2872 2.01556 48.0938 6.61083C39.9751 4.10554 38.7693 19.0033 49.112 18.4273L66.4347 17.2349Z" fill="#102048"/>
<path id="Vector_17" d="M50.9072 24.9111V31.5026C53.868 31.5696 56.3465 30.471 57.8604 28.582C57.8604 28.582 54.9398 26.5456 52.6489 24.9111H50.9072Z" fill="#102048"/>
<path id="Vector_18" d="M65.0683 12.8805L64.2779 20.5438C63.0587 23.9333 61.5716 26.3314 59.6826 27.8453C57.74 29.4128 55.2213 29.9085 52.9036 29.1984C50.9207 28.5955 49.2997 27.1218 48.6298 25.1256C48.2681 24.0271 48.1877 22.7811 48.5092 21.428C48.5628 21.2136 48.603 20.9993 48.6164 20.7849C48.7236 19.9007 48.6298 19.0165 48.4021 18.159C47.9332 16.3638 47.9064 14.4882 48.2413 12.559L57.2175 9.71875L65.0683 12.8805Z" fill="#F9B384"/>
<path id="Vector_19" d="M47.5179 105.001C42.869 106.019 37.4297 105.925 31.3741 105.001C32.8612 91.4827 34.8976 78.5007 38.0326 66.6039L24.9702 65.3312C25.0908 63.2278 25.3721 61.0575 25.8008 58.8335C26.2831 56.3282 26.9798 53.7559 27.864 51.1301C27.8908 51.0363 27.931 50.9425 27.9578 50.8487C31.1062 41.7252 36.8402 34.8523 50.9208 32.5078C55.3285 53.5148 55.007 84.6233 47.5179 105.001Z" fill="#FF8548"/>
<path id="Vector_20" d="M81.1717 87.4906C81.9622 92.2333 82.6588 96.9759 83.3823 101.906C78.8674 103.514 73.4147 104.103 67.1582 103.822C64.5457 95.4085 62.7639 86.6332 61.7457 77.5632C61.7457 77.5231 61.7457 77.4963 61.7323 77.4695C60.1246 63.054 59.0796 47.8346 60.915 31.999C66.6759 32.4143 72.5841 34.1694 78.1172 37.7197C80.0196 38.9388 81.5469 40.7341 82.5785 42.8508C86.4369 50.8088 88.2455 57.8156 89.7326 65.0502L77.6215 69.967C77.9698 71.4407 78.3047 72.901 78.6263 74.3479C79.6177 78.8226 80.4349 83.1499 81.1717 87.4906Z" fill="#FF8548"/>
<path id="Vector_21" d="M40.819 61.4999L39.1979 74.6963L38.4476 75.7011L34.7366 80.6045C33.2227 82.6007 31.1595 83.5921 29.0695 83.6055C26.8188 83.6189 24.5814 82.5069 23.0408 80.2562L16.4761 70.6503C19.7048 66.3364 22.813 61.9421 23.7106 56.208C27.9442 61.1516 29.2035 63.0004 29.2035 63.0004L40.819 61.4999Z" fill="#FF8548"/>
<path id="Vector_22" d="M48.0267 15.7074C51.3492 15.5467 54.6852 14.8366 58.0211 13.095C59.0795 15.118 61.5714 17.7706 65.2288 16.7792L65.6308 14.5687L65.9121 10.8174L54.8861 7.29395L46.2449 10.1342L48.0267 15.7074Z" fill="#102048"/>
<path id="Vector_23" opacity="0.4" d="M81.1718 87.4904C74.1382 86.8071 67.4529 83.565 61.7457 77.563C61.7189 77.5362 61.6921 77.5094 61.6653 77.4826L61.7323 77.4692L78.6397 74.3477C79.6177 78.8224 80.4349 83.1497 81.1718 87.4904Z" fill="#66192D"/>
<g id="Group_9">
<path id="Vector_24" d="M23.9169 56.0576L23.5266 56.3633L30.763 65.6031L31.1533 65.2974L23.9169 56.0576Z" fill="#66192D"/>
</g>
<path id="Vector_25" opacity="0.4" d="M75.4644 50.5537L77.9563 64.862C77.9563 64.862 73.5084 67.8094 72.1419 65.3979C71.0835 63.5089 72.4768 57.3461 75.4644 50.5537Z" fill="#66192D"/>
<path id="Vector_26" d="M49.8354 60.7214L46.8077 60.9357C46.4727 60.9625 46.1914 61.2037 46.111 61.552L46.0842 61.6324C45.9368 62.1817 46.044 62.7577 46.3655 63.1999L46.9148 63.9501C47.0086 64.0707 46.9818 64.2448 46.8746 64.3386C46.3923 64.5798 46.044 65.0487 46.0306 65.5712C46.0306 65.7052 46.0306 65.8391 46.0574 65.9597C46.1646 66.4688 46.5263 66.8841 46.9952 67.0181L47.29 67.0985C47.3302 67.1119 47.3435 67.1521 47.3302 67.1922L46.9014 67.9023C46.5799 68.4516 47.0488 69.4966 47.5043 69.8717C47.5981 70.0191 47.8928 70.0861 48.0536 70.0995L49.3933 70.287C50.0096 70.3674 50.5991 70.5952 51.1484 70.9033C53.8412 72.4842 57.137 72.3234 60.4327 72.1626L60.1782 63.508C57.9274 61.7797 55.3551 60.3194 52.3675 59.1807L45.267 54.1299C43.6861 54.8131 44.6641 56.7424 49.8354 60.7214Z" fill="#F9B384"/>
<path id="Vector_27" d="M89.7326 65.0497L90.7776 69.4708C92.1441 75.2049 87.8436 80.671 82.4445 80.0413L56.8289 76.9331L58.7849 62.3301L89.7326 65.0497Z" fill="#FF8548"/>
<path id="Vector_28" d="M38.0641 50.3066L34.4858 80.5752L34.9781 80.6334L38.5563 50.3648L38.0641 50.3066Z" fill="#66192D"/>
<path id="Vector_29" d="M58.8025 62.0764L58.7607 62.5703L77.9834 64.1972L78.0252 63.7033L58.8025 62.0764Z" fill="#66192D"/>
<g id="Group_10">
<path id="Vector_30" d="M51.068 64.7406C50.9207 64.7272 47.4642 64.3654 46.8479 64.1913L46.9819 63.709C47.4642 63.843 50.1302 64.1377 51.1216 64.2449L51.068 64.7406Z" fill="#E28B6D"/>
</g>
<g id="Group_11">
<path id="Vector_31" d="M51.5236 68.0228C51.3762 68.0094 47.8126 67.6477 47.1963 67.4735L47.3303 66.9912C47.8126 67.1252 50.559 67.4199 51.5772 67.5271L51.5236 68.0228Z" fill="#E28B6D"/>
</g>
<path id="Vector_32" d="M62.7905 22.406C69.0605 23.3438 69.8911 13.3629 63.2326 17.3552L62.7905 22.406Z" fill="#F9B384"/>
<path id="Vector_33" d="M64.2377 19.6866C64.1573 19.3651 64.1439 19.0168 64.2109 18.6818C64.2778 18.3469 64.452 18.012 64.7066 17.744C64.9611 17.4895 65.3362 17.3019 65.7248 17.3287C66.1133 17.3421 66.475 17.5833 66.6224 17.9048L66.4616 18.0254C66.2339 17.8244 65.9793 17.744 65.7248 17.7708C65.4702 17.7842 65.2425 17.9182 65.0549 18.1058C64.8673 18.2933 64.72 18.5345 64.6128 18.8024C64.519 19.0704 64.4654 19.3651 64.4252 19.6866H64.2377Z" fill="#E28B6D"/>
<path id="Vector_34" d="M52.0727 18.3462C52.0727 18.9893 51.711 19.5118 51.2555 19.5118C50.8 19.5118 50.4382 18.9893 50.4382 18.3462C50.4382 17.7032 50.8 17.1807 51.2555 17.1807C51.711 17.1807 52.0727 17.7032 52.0727 18.3462Z" fill="#102048"/>
<path id="Vector_35" d="M58.1821 17.7173C58.1821 18.3604 57.8204 18.8829 57.3648 18.8829C56.9093 18.8829 56.5476 18.3604 56.5476 17.7173C56.5476 17.0743 56.9093 16.5518 57.3648 16.5518C57.8204 16.5518 58.1821 17.0743 58.1821 17.7173Z" fill="#102048"/>
<path id="Vector_36" d="M54.6316 17.3553C54.578 17.9448 54.3637 18.5209 54.1091 19.0434C53.868 19.5659 53.5197 20.075 53.2785 20.5305C53.0374 21.0128 52.9704 21.4549 53.2785 21.8434C53.5732 22.2454 54.0555 22.5535 54.5245 22.9018L54.4173 23.1028C53.8948 22.8884 53.3187 22.6741 52.8766 22.1784C52.6622 21.9372 52.5015 21.5755 52.5015 21.2138C52.5015 20.8654 52.622 20.5439 52.756 20.2626C53.0508 19.6999 53.3857 19.2846 53.667 18.7889C53.9618 18.3066 54.2297 17.8243 54.4173 17.3018L54.6316 17.3553Z" fill="#102048"/>
<path id="Vector_37" d="M52.7964 24.8309L57.1907 23.585C57.1907 23.585 57.1773 25.5678 55.0739 26.0501C53.8682 26.318 52.7964 24.8309 52.7964 24.8309Z" fill="white"/>
<path id="Vector_38" opacity="0.4" d="M50.6124 22.9565C50.6124 24.0953 49.7416 25.0331 48.6296 25.1269C48.2679 24.0283 48.1875 22.7823 48.509 21.4292C48.5626 21.2148 48.6028 21.0005 48.6162 20.7861C49.7416 20.8665 50.6124 21.8043 50.6124 22.9565Z" fill="#FC8879"/>
<path id="Vector_39" opacity="0.4" d="M62.2221 21.7345C62.4153 20.544 61.6068 19.4223 60.4163 19.2291C59.2258 19.0359 58.1041 19.8443 57.9109 21.0348C57.7177 22.2253 58.5261 23.3471 59.7166 23.5403C60.9071 23.7335 62.0288 22.925 62.2221 21.7345Z" fill="#FC8879"/>
<path id="Vector_40" opacity="0.4" d="M35.3127 76.9867L34.7366 80.6039C33.2227 82.6001 31.1596 83.5915 29.0696 83.6049C31.1194 75.2316 35.996 69.1895 35.996 69.1895L35.3127 76.9867Z" fill="#66192D"/>
<path id="Vector_41" opacity="0.2" d="M30.8918 65.3713L25.8008 58.8334C26.2831 56.3281 26.9797 53.7558 27.864 51.13C27.8908 51.0362 27.931 50.9424 27.9577 50.8486C28.9224 52.6439 31.1865 57.7081 30.8918 65.3713Z" fill="#66192D"/>
</g>
<path id="Vector_42" d="M26.2063 20.5799C24.7136 19.9781 23.4389 19.0459 22.4242 17.7492C23.615 15.944 24.3027 13.7744 24.3027 11.4352C24.3027 5.07888 19.0363 -0.124846 12.7552 0.00228086C6.37347 0.137883 1.29157 5.60434 1.70248 12.1726C2.06308 17.8848 6.65859 22.5037 12.3107 22.8427C15.0949 23.0122 17.6778 22.1562 19.7239 20.6223C21.5018 21.3935 23.6067 21.563 26.1895 20.868C26.3321 20.8341 26.3405 20.6307 26.2063 20.5799Z" fill="#BB2944"/>
<g id="Group_12">
<path id="Vector_43" d="M16.6741 11.4538C16.6741 9.29207 14.8006 7.56264 12.5794 7.80849C10.9178 7.995 9.5699 9.32598 9.36644 10.9791C9.22232 12.1066 9.60381 13.1494 10.282 13.9039C10.8246 14.4973 11.0959 15.2857 11.0959 16.0911C11.0959 17.1423 11.9521 17.9901 12.9948 17.9901C14.0461 17.9901 14.8938 17.1338 14.8938 16.0911C14.8938 15.2603 15.2244 14.4719 15.767 13.836C16.335 13.2002 16.6741 12.3694 16.6741 11.4538Z" fill="#FBC343"/>
<g id="Group_13">
<path id="Vector_44" d="M13.0033 18.6162C13.673 18.6162 14.2241 18.116 14.3088 17.4717H11.6978C11.7825 18.116 12.3336 18.6162 13.0033 18.6162Z" fill="#102048"/>
</g>
<path id="Vector_45" opacity="0.8" d="M11.9268 10.8938C11.6894 11.555 11.2316 12.0043 10.9094 11.8856C10.5873 11.767 10.5195 11.1396 10.7568 10.4699C10.9942 9.80864 11.452 9.35933 11.7742 9.47801C12.0963 9.5967 12.1641 10.2325 11.9268 10.8938Z" fill="white"/>
<g id="Group_14">
<path id="Vector_46" d="M13.1219 6.56274H13.0287C12.8507 6.56274 12.7065 6.41862 12.7065 6.2406V4.18055C12.7065 4.00252 12.8507 3.8584 13.0287 3.8584H13.1219C13.3 3.8584 13.4441 4.00252 13.4441 4.18055V6.2406C13.4441 6.41015 13.3 6.56274 13.1219 6.56274Z" fill="#FBC343"/>
<path id="Vector_47" d="M10.2905 7.16632L10.1973 7.22566C10.0531 7.32739 9.85816 7.285 9.75643 7.14089L8.75608 5.64883C8.65435 5.50471 8.69674 5.30973 8.84085 5.208L8.93411 5.14866C9.07823 5.04693 9.27321 5.08931 9.37494 5.23343L10.3838 6.72548C10.477 6.8696 10.4346 7.06459 10.2905 7.16632Z" fill="#FBC343"/>
<path id="Vector_48" d="M15.75 7.10489L15.8432 7.16423C15.9873 7.25749 16.1823 7.22358 16.2841 7.07946L17.259 5.63827C17.3522 5.49415 17.3183 5.29917 17.1742 5.19744L17.0809 5.13809C16.9368 5.04484 16.7418 5.07875 16.6401 5.22287L15.6652 6.66406C15.5719 6.81665 15.6059 7.01164 15.75 7.10489Z" fill="#FBC343"/>
</g>
</g>
</g>
</g>
<defs>
<clipPath id="clip0_1844_8831">
<rect width="107" height="93" fill="white"/>
</clipPath>
</defs>
</svg>
