<svg width="376" height="318" viewBox="0 0 376 318" fill="none" xmlns="http://www.w3.org/2000/svg">
<path d="M271.525 238.28C274.011 237.911 275.415 237.957 277.786 239.384C277.648 243.598 277.786 246.245 278.27 250.367C276.705 250.091 275.692 250.114 274.841 250.367C274.265 245.624 273.344 242.839 271.525 238.28Z" fill="url(#paint0_linear_19_6)"/>
<path d="M75.3782 230.302C74.3423 229.312 73.2374 228.714 71.7067 228.242C74.1464 225.847 75.861 224.132 77.2534 221.956C79.0488 222.07 79.9581 222.634 80.994 223.624C80.1309 225.086 78.0481 227.746 75.3782 230.302Z" fill="url(#paint1_linear_19_6)"/>
<path d="M52.0032 222.145C51.3013 223.837 51.2209 225.438 51.2671 227.464C47.1353 225.726 44.304 224.622 40.9779 224.035C40.3447 221.905 40.5863 220.535 41.0925 218.809C43.4403 219.223 47.4801 220.339 52.0032 222.145Z" fill="url(#paint2_linear_19_6)"/>
<path d="M67.9146 166.228C67.1665 165.894 66.7752 165.825 65.9581 165.883C66.3953 164.548 66.798 163.408 67.2928 162.89C67.8798 162.993 68.4322 163.292 68.9502 163.787C68.6165 164.536 68.3173 165.088 67.9146 166.228Z" fill="url(#paint3_linear_19_6)"/>
<path d="M292.634 136.868C292.185 135.981 291.506 135.256 289.457 134.289C290.021 133.38 290.712 132.896 291.828 132.286C293.29 133.149 294.164 133.909 295.131 135.29C293.854 135.67 293.394 135.992 292.634 136.868Z" fill="url(#paint4_linear_19_6)"/>
<path d="M93.5475 194.762C95.3315 196.085 97.2767 197.639 98.2667 200.033C97.5648 201.726 97.3232 203.095 96.9782 205.053C95.7811 203.833 94.8028 203.66 92.3169 204.029C93.387 201.392 93.4788 198.584 93.5475 194.762Z" fill="url(#paint5_linear_19_6)"/>
<path d="M102.663 73.2743C101.443 74.4717 101.236 75.646 101.156 77.2462C98.7848 75.8191 96.4828 74.0007 95.6426 73.0454C96.2409 71.9401 97.1961 71.0996 98.3814 70.0978C99.3828 71.2833 100.649 72.112 102.663 73.2743Z" fill="url(#paint6_linear_19_6)"/>
<path d="M78.817 80.3702C79.5534 78.4821 80.1518 77.3768 82.0276 75.8914C83.4779 77.9633 84.7094 78.9876 86.4013 79.6895C85.8606 81.6121 85.2622 82.7174 84.1345 84.5365C82.454 82.6258 80.9923 81.7627 78.817 80.3702Z" fill="url(#paint7_linear_19_6)"/>
<path d="M280.563 152.7C281.472 153.264 282.347 154.023 282.727 155.301C282.393 156.05 282.29 156.637 282.117 157.615C281.634 156.925 281.047 156.821 279.999 157.04C280.241 155.67 280.287 154.266 280.563 152.7Z" fill="url(#paint8_linear_19_6)"/>
<path d="M291.272 215.528C292.319 215.31 293.01 214.826 293.735 214.147C294.437 215.885 294.909 217.784 294.771 218.567C293.919 218.82 293.263 219.108 292.055 219.097C292.227 218.118 291.813 217.036 291.272 215.528Z" fill="url(#paint9_linear_19_6)"/>
<path d="M58.9129 147.488C58.28 148.789 58.234 150.194 59.086 153.371C57.6474 153.521 56.4735 153.314 54.7816 152.612C54.4131 150.125 54.2634 148.686 55.0688 146.407C56.3694 147.04 57.1175 147.373 58.9129 147.488Z" fill="url(#paint10_linear_19_6)"/>
<path d="M277.655 194.361C275.687 195.225 273.489 196.25 270.945 195.801C269.783 194.385 268.942 193.43 267.32 192.337C268.988 192.026 269.552 191.116 270.358 188.837C272.199 190.977 274.57 192.404 277.655 194.361Z" fill="url(#paint11_linear_19_6)"/>
<path d="M330.414 210.928C330.195 209.881 330.298 209.294 330.862 208.384C332.658 208.499 333.67 208.476 335.535 208.199C335.431 208.786 335.328 209.373 335.489 209.603C333.624 209.88 332.347 210.26 330.414 210.928Z" fill="url(#paint12_linear_19_6)"/>
<path d="M302.306 181.555C301.616 182.039 301.029 181.935 300.05 181.763C300.234 179.576 300.027 177.319 299.267 174.764C300.084 174.706 300.51 174.579 301.2 174.096C302.317 176.916 302.628 178.585 302.306 181.555Z" fill="url(#paint13_linear_19_6)"/>
<path d="M78.0598 105.259C78.428 104.315 78.3704 103.498 77.7603 102.381C80.7065 101.69 82.6976 101.839 85.7014 101.965C86.4036 103.703 86.2311 104.682 86.093 105.465C83.0316 104.521 81.1672 104.798 78.0598 105.259Z" fill="url(#paint14_linear_19_6)"/>
<path d="M75.2423 130.39C76.1861 130.758 76.7385 131.057 77.1875 131.944C76.3244 133.406 75.7606 134.316 75.0932 135.812C74.5753 135.317 74.184 135.248 73.7927 135.179C74.8859 133.556 75.1274 132.186 75.2423 130.39Z" fill="url(#paint15_linear_19_6)"/>
<path d="M302.653 200.181C302.296 199.916 302.204 199.295 301.916 198.639C303.585 198.327 305.127 197.59 306.934 196.496C307.026 197.118 307.383 197.383 307.705 197.843C306.094 198.972 304.978 199.582 302.653 200.181Z" fill="url(#paint16_linear_19_6)"/>
<path d="M306.659 211.785C304.76 212.257 303.839 212.902 302.838 215.147C301.158 213.236 300.651 211.533 299.765 208.551C300.467 206.859 301.353 206.41 303.447 205.972C304.242 208.332 304.909 210.265 306.659 211.785Z" fill="url(#paint17_linear_19_6)"/>
<path d="M87.6557 203.004C85.538 202.429 84.3296 202.418 82.1084 202.43C82.0852 201.417 82.0621 200.404 82.626 199.494C84.0991 199.149 85.8945 199.263 88.438 199.712C87.3793 201.14 87.0456 201.888 87.6557 203.004Z" fill="url(#paint18_linear_19_6)"/>
<path d="M166.087 196.792C164.163 195.169 162.173 193.492 160.589 192.834C158.851 192.114 156.27 191.878 153.539 191.63C148.35 191.158 142.471 190.622 138.204 186.355C137.287 185.438 136.55 184.441 135.94 183.397L122.96 207.33C122.587 208.017 122.615 208.851 123.031 209.512C123.447 210.171 124.17 210.56 124.968 210.518L144.853 209.523L154.865 226.734C155.252 227.4 155.964 227.809 156.731 227.809H156.763C157.543 227.797 158.258 227.365 158.629 226.678L172.308 201.458C169.982 200.071 167.926 198.343 166.087 196.792Z" fill="url(#paint19_linear_19_6)"/>
<path d="M226.056 183.398C225.447 184.442 224.71 185.437 223.792 186.356C219.526 190.622 213.646 191.158 208.459 191.63C205.727 191.88 203.147 192.114 201.409 192.834C199.825 193.491 197.835 195.17 195.911 196.793C194.072 198.344 192.016 200.072 189.689 201.457L203.367 226.676C203.739 227.363 204.453 227.793 205.234 227.806H205.265C206.034 227.806 206.746 227.397 207.131 226.732L217.144 209.521L237.029 210.516C237.825 210.559 238.549 210.17 238.966 209.509C239.382 208.848 239.409 208.015 239.036 207.328L226.056 183.398Z" fill="url(#paint20_linear_19_6)"/>
<path d="M193.592 194.038C195.824 192.156 197.932 190.377 200.032 189.507C202.275 188.577 205.121 188.318 208.133 188.043C212.936 187.605 217.902 187.153 221.247 183.808C224.594 180.463 225.046 175.496 225.484 170.692C225.758 167.68 226.018 164.834 226.948 162.591C227.818 160.491 229.597 158.383 231.48 156.15C234.498 152.57 237.921 148.514 237.921 143.558C237.921 138.603 234.5 134.546 231.48 130.966C229.598 128.734 227.82 126.626 226.95 124.526C226.02 122.282 225.76 119.437 225.485 116.425C225.048 111.622 224.595 106.654 221.25 103.309C217.905 99.9625 212.939 99.5103 208.135 99.0726C205.122 98.799 202.275 98.5383 200.033 97.6081C197.934 96.7383 195.826 94.9599 193.594 93.0778C190.014 90.0582 185.957 86.6367 181.001 86.6367C176.044 86.6367 171.988 90.0582 168.41 93.0778C166.178 94.9599 164.069 96.7383 161.97 97.6081C159.726 98.5383 156.881 98.7975 153.868 99.0726C149.065 99.5103 144.098 99.9625 140.753 103.308C137.408 106.653 136.954 111.619 136.518 116.423C136.243 119.436 135.984 122.282 135.053 124.525C134.184 126.624 132.405 128.732 130.523 130.964C127.505 134.544 124.082 138.601 124.082 143.557C124.082 148.514 127.503 152.569 130.523 156.148C132.405 158.38 134.184 160.489 135.053 162.588C135.984 164.832 136.243 167.677 136.518 170.69C136.956 175.492 137.408 180.46 140.753 183.805C144.098 187.15 149.065 187.604 153.867 188.04C156.879 188.315 159.726 188.574 161.97 189.505C164.069 190.374 166.178 192.153 168.411 194.036C171.989 197.054 176.047 200.476 181.002 200.476C185.957 200.476 190.015 197.054 193.595 194.035L193.592 194.038ZM146.82 143.557C146.82 124.71 162.153 109.377 180.999 109.377C199.846 109.377 215.179 124.71 215.179 143.557C215.179 162.404 199.846 177.737 180.999 177.737C162.153 177.737 146.82 162.404 146.82 143.557ZM161.996 141.782C160.828 140.644 160.416 138.975 160.92 137.426C161.424 135.875 162.739 134.767 164.352 134.533L173.257 133.238L177.186 125.206C177.908 123.744 179.369 122.835 180.998 122.835C182.627 122.835 184.088 123.743 184.808 125.204L188.791 133.275L197.644 134.531C199.257 134.766 200.572 135.873 201.076 137.424C201.58 138.975 201.167 140.644 200 141.78L193.555 148.063L195.097 156.871C195.372 158.478 194.724 160.071 193.407 161.029C192.662 161.57 191.789 161.845 190.912 161.845C190.237 161.845 189.559 161.682 188.931 161.353L180.965 157.165L173.064 161.353C171.621 162.11 169.906 161.988 168.588 161.029C167.269 160.071 166.623 158.478 166.898 156.871L168.42 148.001L161.996 141.782Z" fill="url(#paint21_linear_19_6)"/>
<defs>
<linearGradient id="paint0_linear_19_6" x1="278.507" y1="244.217" x2="271.483" y2="244.257" gradientUnits="userSpaceOnUse">
<stop stop-color="#AB3C00"/>
<stop offset="0.3441" stop-color="#FFC700"/>
<stop offset="0.3696" stop-color="#FFCD17"/>
<stop offset="0.4069" stop-color="#FFD533"/>
<stop offset="0.4445" stop-color="#FFDA46"/>
<stop offset="0.4826" stop-color="#FFDD52"/>
<stop offset="0.5215" stop-color="#FFDE56"/>
<stop offset="0.5509" stop-color="#FFDD51"/>
<stop offset="0.5855" stop-color="#FFD943"/>
<stop offset="0.6225" stop-color="#FFD32B"/>
<stop offset="0.6612" stop-color="#FFCA0B"/>
<stop offset="0.672" stop-color="#FFC700"/>
<stop offset="1" stop-color="#AB3C00"/>
</linearGradient>
<linearGradient id="paint1_linear_19_6" x1="73.5705" y1="223.469" x2="78.8002" y2="227.678" gradientUnits="userSpaceOnUse">
<stop stop-color="#005200"/>
<stop offset="0.1859" stop-color="#00890B"/>
<stop offset="0.3118" stop-color="#00A912"/>
<stop offset="0.3267" stop-color="#11AD12"/>
<stop offset="0.3667" stop-color="#3AB512"/>
<stop offset="0.406" stop-color="#5ABC12"/>
<stop offset="0.4438" stop-color="#71C112"/>
<stop offset="0.4795" stop-color="#7EC412"/>
<stop offset="0.5108" stop-color="#83C512"/>
<stop offset="0.55" stop-color="#7FC412"/>
<stop offset="0.5906" stop-color="#72C112"/>
<stop offset="0.632" stop-color="#5EBD12"/>
<stop offset="0.6737" stop-color="#41B712"/>
<stop offset="0.7154" stop-color="#1CAF12"/>
<stop offset="0.7419" stop-color="#00A912"/>
<stop offset="0.783" stop-color="#009E10"/>
<stop offset="0.8555" stop-color="#00800C"/>
<stop offset="0.9504" stop-color="#005004"/>
<stop offset="1" stop-color="#003400"/>
</linearGradient>
<linearGradient id="paint2_linear_19_6" x1="44.8535" y1="227.829" x2="47.1701" y2="219.483" gradientUnits="userSpaceOnUse">
<stop stop-color="#920040"/>
<stop offset="0.0478432" stop-color="#AE0052"/>
<stop offset="0.119" stop-color="#D10069"/>
<stop offset="0.1861" stop-color="#EA007A"/>
<stop offset="0.2469" stop-color="#FA0084"/>
<stop offset="0.2957" stop-color="#FF0087"/>
<stop offset="0.3487" stop-color="#FF1A8B"/>
<stop offset="0.4347" stop-color="#FF3F92"/>
<stop offset="0.5043" stop-color="#FF5696"/>
<stop offset="0.5484" stop-color="#FF5E97"/>
<stop offset="0.5841" stop-color="#FF5696"/>
<stop offset="0.641" stop-color="#FF3F92"/>
<stop offset="0.7115" stop-color="#FF198B"/>
<stop offset="0.7527" stop-color="#FF0087"/>
<stop offset="0.7936" stop-color="#FA0084"/>
<stop offset="0.8443" stop-color="#EA007A"/>
<stop offset="0.9001" stop-color="#D10069"/>
<stop offset="0.9592" stop-color="#AE0053"/>
<stop offset="1" stop-color="#920040"/>
</linearGradient>
<linearGradient id="paint3_linear_19_6" x1="68.6277" y1="165.248" x2="66.0947" y2="164.246" gradientUnits="userSpaceOnUse">
<stop stop-color="#400300"/>
<stop offset="0.0709114" stop-color="#750300"/>
<stop offset="0.1439" stop-color="#A50300"/>
<stop offset="0.2084" stop-color="#C80300"/>
<stop offset="0.2612" stop-color="#DD0300"/>
<stop offset="0.2957" stop-color="#E50300"/>
<stop offset="0.3376" stop-color="#EE190C"/>
<stop offset="0.3927" stop-color="#F82E18"/>
<stop offset="0.4459" stop-color="#FD3C20"/>
<stop offset="0.4946" stop-color="#FF4022"/>
<stop offset="0.5442" stop-color="#FD3B1F"/>
<stop offset="0.5995" stop-color="#F72E18"/>
<stop offset="0.6574" stop-color="#EE180C"/>
<stop offset="0.6989" stop-color="#E50300"/>
<stop offset="0.7336" stop-color="#DB0300"/>
<stop offset="0.7914" stop-color="#C20300"/>
<stop offset="0.8653" stop-color="#980300"/>
<stop offset="0.9515" stop-color="#5E0300"/>
<stop offset="1" stop-color="#3B0300"/>
</linearGradient>
<linearGradient id="paint4_linear_19_6" x1="290.655" y1="136.456" x2="293.82" y2="132.986" gradientUnits="userSpaceOnUse">
<stop stop-color="#920040"/>
<stop offset="0.0478432" stop-color="#AE0052"/>
<stop offset="0.119" stop-color="#D10069"/>
<stop offset="0.1861" stop-color="#EA007A"/>
<stop offset="0.2469" stop-color="#FA0084"/>
<stop offset="0.2957" stop-color="#FF0087"/>
<stop offset="0.3487" stop-color="#FF1A8B"/>
<stop offset="0.4347" stop-color="#FF3F92"/>
<stop offset="0.5043" stop-color="#FF5696"/>
<stop offset="0.5484" stop-color="#FF5E97"/>
<stop offset="0.5841" stop-color="#FF5696"/>
<stop offset="0.641" stop-color="#FF3F92"/>
<stop offset="0.7115" stop-color="#FF198B"/>
<stop offset="0.7527" stop-color="#FF0087"/>
<stop offset="0.7936" stop-color="#FA0084"/>
<stop offset="0.8443" stop-color="#EA007A"/>
<stop offset="0.9001" stop-color="#D10069"/>
<stop offset="0.9592" stop-color="#AE0053"/>
<stop offset="1" stop-color="#920040"/>
</linearGradient>
<linearGradient id="paint5_linear_19_6" x1="92.4772" y1="199.367" x2="99.0239" y2="201.165" gradientUnits="userSpaceOnUse">
<stop stop-color="#0038AB"/>
<stop offset="0.1131" stop-color="#0062C9"/>
<stop offset="0.272" stop-color="#0097F0"/>
<stop offset="0.3495" stop-color="#00ACFF"/>
<stop offset="0.4014" stop-color="#00BFFF"/>
<stop offset="0.469" stop-color="#00D2FF"/>
<stop offset="0.5161" stop-color="#00D9FF"/>
<stop offset="0.6633" stop-color="#00B8FF"/>
<stop offset="0.7097" stop-color="#00ACFF"/>
<stop offset="0.755" stop-color="#00A2F8"/>
<stop offset="0.833" stop-color="#0086E3"/>
<stop offset="0.9337" stop-color="#0059C3"/>
<stop offset="1" stop-color="#0038AB"/>
</linearGradient>
<linearGradient id="paint6_linear_19_6" x1="101.055" y1="71.4736" x2="97.6453" y2="76.2708" gradientUnits="userSpaceOnUse">
<stop stop-color="#0038AB"/>
<stop offset="0.1131" stop-color="#0062C9"/>
<stop offset="0.272" stop-color="#0097F0"/>
<stop offset="0.3495" stop-color="#00ACFF"/>
<stop offset="0.4014" stop-color="#00BFFF"/>
<stop offset="0.469" stop-color="#00D2FF"/>
<stop offset="0.5161" stop-color="#00D9FF"/>
<stop offset="0.6633" stop-color="#00B8FF"/>
<stop offset="0.7097" stop-color="#00ACFF"/>
<stop offset="0.755" stop-color="#00A2F8"/>
<stop offset="0.833" stop-color="#0086E3"/>
<stop offset="0.9337" stop-color="#0059C3"/>
<stop offset="1" stop-color="#0038AB"/>
</linearGradient>
<linearGradient id="paint7_linear_19_6" x1="81.1108" y1="82.3141" x2="85.025" y2="77.2223" gradientUnits="userSpaceOnUse">
<stop stop-color="#400300"/>
<stop offset="0.0709114" stop-color="#750300"/>
<stop offset="0.1439" stop-color="#A50300"/>
<stop offset="0.2084" stop-color="#C80300"/>
<stop offset="0.2612" stop-color="#DD0300"/>
<stop offset="0.2957" stop-color="#E50300"/>
<stop offset="0.3376" stop-color="#EE190C"/>
<stop offset="0.3927" stop-color="#F82E18"/>
<stop offset="0.4459" stop-color="#FD3C20"/>
<stop offset="0.4946" stop-color="#FF4022"/>
<stop offset="0.5442" stop-color="#FD3B1F"/>
<stop offset="0.5995" stop-color="#F72E18"/>
<stop offset="0.6574" stop-color="#EE180C"/>
<stop offset="0.6989" stop-color="#E50300"/>
<stop offset="0.7336" stop-color="#DB0300"/>
<stop offset="0.7914" stop-color="#C20300"/>
<stop offset="0.8653" stop-color="#980300"/>
<stop offset="0.9515" stop-color="#5E0300"/>
<stop offset="1" stop-color="#3B0300"/>
</linearGradient>
<linearGradient id="paint8_linear_19_6" x1="279.898" y1="154.7" x2="282.914" y2="155.674" gradientUnits="userSpaceOnUse">
<stop stop-color="#AB3C00"/>
<stop offset="0.3441" stop-color="#FFC700"/>
<stop offset="0.3696" stop-color="#FFCD17"/>
<stop offset="0.4069" stop-color="#FFD533"/>
<stop offset="0.4445" stop-color="#FFDA46"/>
<stop offset="0.4826" stop-color="#FFDD52"/>
<stop offset="0.5215" stop-color="#FFDE56"/>
<stop offset="0.5509" stop-color="#FFDD51"/>
<stop offset="0.5855" stop-color="#FFD943"/>
<stop offset="0.6225" stop-color="#FFD32B"/>
<stop offset="0.6612" stop-color="#FFCA0B"/>
<stop offset="0.672" stop-color="#FFC700"/>
<stop offset="1" stop-color="#AB3C00"/>
</linearGradient>
<linearGradient id="paint9_linear_19_6" x1="291.372" y1="217.193" x2="295.094" y2="216.11" gradientUnits="userSpaceOnUse">
<stop stop-color="#400300"/>
<stop offset="0.0709114" stop-color="#750300"/>
<stop offset="0.1439" stop-color="#A50300"/>
<stop offset="0.2084" stop-color="#C80300"/>
<stop offset="0.2612" stop-color="#DD0300"/>
<stop offset="0.2957" stop-color="#E50300"/>
<stop offset="0.3376" stop-color="#EE190C"/>
<stop offset="0.3927" stop-color="#F82E18"/>
<stop offset="0.4459" stop-color="#FD3C20"/>
<stop offset="0.4946" stop-color="#FF4022"/>
<stop offset="0.5442" stop-color="#FD3B1F"/>
<stop offset="0.5995" stop-color="#F72E18"/>
<stop offset="0.6574" stop-color="#EE180C"/>
<stop offset="0.6989" stop-color="#E50300"/>
<stop offset="0.7336" stop-color="#DB0300"/>
<stop offset="0.7914" stop-color="#C20300"/>
<stop offset="0.8653" stop-color="#980300"/>
<stop offset="0.9515" stop-color="#5E0300"/>
<stop offset="1" stop-color="#3B0300"/>
</linearGradient>
<linearGradient id="paint10_linear_19_6" x1="60.1554" y1="149.956" x2="53.4592" y2="149.686" gradientUnits="userSpaceOnUse">
<stop stop-color="#400300"/>
<stop offset="0.0709114" stop-color="#750300"/>
<stop offset="0.1439" stop-color="#A50300"/>
<stop offset="0.2084" stop-color="#C80300"/>
<stop offset="0.2612" stop-color="#DD0300"/>
<stop offset="0.2957" stop-color="#E50300"/>
<stop offset="0.3376" stop-color="#EE190C"/>
<stop offset="0.3927" stop-color="#F82E18"/>
<stop offset="0.4459" stop-color="#FD3C20"/>
<stop offset="0.4946" stop-color="#FF4022"/>
<stop offset="0.5442" stop-color="#FD3B1F"/>
<stop offset="0.5995" stop-color="#F72E18"/>
<stop offset="0.6574" stop-color="#EE180C"/>
<stop offset="0.6989" stop-color="#E50300"/>
<stop offset="0.7336" stop-color="#DB0300"/>
<stop offset="0.7914" stop-color="#C20300"/>
<stop offset="0.8653" stop-color="#980300"/>
<stop offset="0.9515" stop-color="#5E0300"/>
<stop offset="1" stop-color="#3B0300"/>
</linearGradient>
<linearGradient id="paint11_linear_19_6" x1="274.405" y1="191.316" x2="269.738" y2="195.943" gradientUnits="userSpaceOnUse">
<stop stop-color="#0038AB"/>
<stop offset="0.1131" stop-color="#0062C9"/>
<stop offset="0.272" stop-color="#0097F0"/>
<stop offset="0.3495" stop-color="#00ACFF"/>
<stop offset="0.4014" stop-color="#00BFFF"/>
<stop offset="0.469" stop-color="#00D2FF"/>
<stop offset="0.5161" stop-color="#00D9FF"/>
<stop offset="0.6633" stop-color="#00B8FF"/>
<stop offset="0.7097" stop-color="#00ACFF"/>
<stop offset="0.755" stop-color="#00A2F8"/>
<stop offset="0.833" stop-color="#0086E3"/>
<stop offset="0.9337" stop-color="#0059C3"/>
<stop offset="1" stop-color="#0038AB"/>
</linearGradient>
<linearGradient id="paint12_linear_19_6" x1="332.98" y1="208.113" x2="332.922" y2="211.062" gradientUnits="userSpaceOnUse">
<stop stop-color="#0038AB"/>
<stop offset="0.1131" stop-color="#0062C9"/>
<stop offset="0.272" stop-color="#0097F0"/>
<stop offset="0.3495" stop-color="#00ACFF"/>
<stop offset="0.4014" stop-color="#00BFFF"/>
<stop offset="0.469" stop-color="#00D2FF"/>
<stop offset="0.5161" stop-color="#00D9FF"/>
<stop offset="0.6633" stop-color="#00B8FF"/>
<stop offset="0.7097" stop-color="#00ACFF"/>
<stop offset="0.755" stop-color="#00A2F8"/>
<stop offset="0.833" stop-color="#0086E3"/>
<stop offset="0.9337" stop-color="#0059C3"/>
<stop offset="1" stop-color="#0038AB"/>
</linearGradient>
<linearGradient id="paint13_linear_19_6" x1="302.968" y1="177.747" x2="299.397" y2="178.593" gradientUnits="userSpaceOnUse">
<stop stop-color="#400300"/>
<stop offset="0.0709114" stop-color="#750300"/>
<stop offset="0.1439" stop-color="#A50300"/>
<stop offset="0.2084" stop-color="#C80300"/>
<stop offset="0.2612" stop-color="#DD0300"/>
<stop offset="0.2957" stop-color="#E50300"/>
<stop offset="0.3376" stop-color="#EE190C"/>
<stop offset="0.3927" stop-color="#F82E18"/>
<stop offset="0.4459" stop-color="#FD3C20"/>
<stop offset="0.4946" stop-color="#FF4022"/>
<stop offset="0.5442" stop-color="#FD3B1F"/>
<stop offset="0.5995" stop-color="#F72E18"/>
<stop offset="0.6574" stop-color="#EE180C"/>
<stop offset="0.6989" stop-color="#E50300"/>
<stop offset="0.7336" stop-color="#DB0300"/>
<stop offset="0.7914" stop-color="#C20300"/>
<stop offset="0.8653" stop-color="#980300"/>
<stop offset="0.9515" stop-color="#5E0300"/>
<stop offset="1" stop-color="#3B0300"/>
</linearGradient>
<linearGradient id="paint14_linear_19_6" x1="82.0066" y1="105.634" x2="81.9348" y2="100.914" gradientUnits="userSpaceOnUse">
<stop stop-color="#0038AB"/>
<stop offset="0.1131" stop-color="#0062C9"/>
<stop offset="0.272" stop-color="#0097F0"/>
<stop offset="0.3495" stop-color="#00ACFF"/>
<stop offset="0.4014" stop-color="#00BFFF"/>
<stop offset="0.469" stop-color="#00D2FF"/>
<stop offset="0.5161" stop-color="#00D9FF"/>
<stop offset="0.6633" stop-color="#00B8FF"/>
<stop offset="0.7097" stop-color="#00ACFF"/>
<stop offset="0.755" stop-color="#00A2F8"/>
<stop offset="0.833" stop-color="#0086E3"/>
<stop offset="0.9337" stop-color="#0059C3"/>
<stop offset="1" stop-color="#0038AB"/>
</linearGradient>
<linearGradient id="paint15_linear_19_6" x1="76.6177" y1="133.838" x2="74.1428" y2="132.422" gradientUnits="userSpaceOnUse">
<stop stop-color="#0038AB"/>
<stop offset="0.1131" stop-color="#0062C9"/>
<stop offset="0.272" stop-color="#0097F0"/>
<stop offset="0.3495" stop-color="#00ACFF"/>
<stop offset="0.4014" stop-color="#00BFFF"/>
<stop offset="0.469" stop-color="#00D2FF"/>
<stop offset="0.5161" stop-color="#00D9FF"/>
<stop offset="0.6633" stop-color="#00B8FF"/>
<stop offset="0.7097" stop-color="#00ACFF"/>
<stop offset="0.755" stop-color="#00A2F8"/>
<stop offset="0.833" stop-color="#0086E3"/>
<stop offset="0.9337" stop-color="#0059C3"/>
<stop offset="1" stop-color="#0038AB"/>
</linearGradient>
<linearGradient id="paint16_linear_19_6" x1="305.713" y1="199.709" x2="304.315" y2="197.268" gradientUnits="userSpaceOnUse">
<stop stop-color="#AB3C00"/>
<stop offset="0.3441" stop-color="#FFC700"/>
<stop offset="0.3696" stop-color="#FFCD17"/>
<stop offset="0.4069" stop-color="#FFD533"/>
<stop offset="0.4445" stop-color="#FFDA46"/>
<stop offset="0.4826" stop-color="#FFDD52"/>
<stop offset="0.5215" stop-color="#FFDE56"/>
<stop offset="0.5509" stop-color="#FFDD51"/>
<stop offset="0.5855" stop-color="#FFD943"/>
<stop offset="0.6225" stop-color="#FFD32B"/>
<stop offset="0.6612" stop-color="#FFCA0B"/>
<stop offset="0.672" stop-color="#FFC700"/>
<stop offset="1" stop-color="#AB3C00"/>
</linearGradient>
<linearGradient id="paint17_linear_19_6" x1="305.301" y1="208.902" x2="299.726" y2="212.12" gradientUnits="userSpaceOnUse">
<stop stop-color="#0038AB"/>
<stop offset="0.1131" stop-color="#0062C9"/>
<stop offset="0.272" stop-color="#0097F0"/>
<stop offset="0.3495" stop-color="#00ACFF"/>
<stop offset="0.4014" stop-color="#00BFFF"/>
<stop offset="0.469" stop-color="#00D2FF"/>
<stop offset="0.5161" stop-color="#00D9FF"/>
<stop offset="0.6633" stop-color="#00B8FF"/>
<stop offset="0.7097" stop-color="#00ACFF"/>
<stop offset="0.755" stop-color="#00A2F8"/>
<stop offset="0.833" stop-color="#0086E3"/>
<stop offset="0.9337" stop-color="#0059C3"/>
<stop offset="1" stop-color="#0038AB"/>
</linearGradient>
<linearGradient id="paint18_linear_19_6" x1="84.8828" y1="202.987" x2="85.2916" y2="198.887" gradientUnits="userSpaceOnUse">
<stop stop-color="#AB3C00"/>
<stop offset="0.3441" stop-color="#FFC700"/>
<stop offset="0.3696" stop-color="#FFCD17"/>
<stop offset="0.4069" stop-color="#FFD533"/>
<stop offset="0.4445" stop-color="#FFDA46"/>
<stop offset="0.4826" stop-color="#FFDD52"/>
<stop offset="0.5215" stop-color="#FFDE56"/>
<stop offset="0.5509" stop-color="#FFDD51"/>
<stop offset="0.5855" stop-color="#FFD943"/>
<stop offset="0.6225" stop-color="#FFD32B"/>
<stop offset="0.6612" stop-color="#FFCA0B"/>
<stop offset="0.672" stop-color="#FFC700"/>
<stop offset="1" stop-color="#AB3C00"/>
</linearGradient>
<linearGradient id="paint19_linear_19_6" x1="147.502" y1="183.397" x2="147.502" y2="227.806" gradientUnits="userSpaceOnUse">
<stop stop-color="#27D7FF"/>
<stop offset="0.044" stop-color="#29D2FF"/>
<stop offset="0.437" stop-color="#3DB3FF"/>
<stop offset="0.769" stop-color="#49A0FF"/>
<stop offset="1" stop-color="#4E9AFF"/>
</linearGradient>
<linearGradient id="paint20_linear_19_6" x1="214.494" y1="183.398" x2="214.494" y2="227.806" gradientUnits="userSpaceOnUse">
<stop stop-color="#27D7FF"/>
<stop offset="0.044" stop-color="#29D2FF"/>
<stop offset="0.437" stop-color="#3DB3FF"/>
<stop offset="0.769" stop-color="#49A0FF"/>
<stop offset="1" stop-color="#4E9AFF"/>
</linearGradient>
<linearGradient id="paint21_linear_19_6" x1="180.999" y1="86.6353" x2="180.999" y2="200.477" gradientUnits="userSpaceOnUse">
<stop stop-color="#27D7FF"/>
<stop offset="0.044" stop-color="#29D2FF"/>
<stop offset="0.437" stop-color="#3DB3FF"/>
<stop offset="0.769" stop-color="#49A0FF"/>
<stop offset="1" stop-color="#4E9AFF"/>
</linearGradient>
</defs>
</svg>
