<svg width="40" height="40" viewBox="0 0 40 40" fill="none" xmlns="http://www.w3.org/2000/svg">
<g id="fi_535731" clip-path="url(#clip0_1229_15293)">
<g id="Group">
<g id="Group_2">
<path id="Vector" d="M22.4091 7.22305C23.7397 7.22305 24.8185 6.14434 24.8185 4.81367C24.8185 3.48301 23.7397 2.4043 22.4091 2.4043C21.0784 2.4043 19.9997 3.48301 19.9997 4.81367C19.9997 6.14434 21.0784 7.22305 22.4091 7.22305Z" fill="#04686E"/>
</g>
</g>
<g id="Group_3">
<g id="Group_4">
<path id="Vector_2" d="M27.2286 3.8556C28.2933 3.8556 29.1564 2.9925 29.1564 1.9278C29.1564 0.863106 28.2933 0 27.2286 0C26.1639 0 25.3008 0.863106 25.3008 1.9278C25.3008 2.9925 26.1639 3.8556 27.2286 3.8556Z" fill="#04686E"/>
</g>
</g>
<g id="Group_5">
<g id="Group_6">
<path id="Vector_3" d="M35.3252 32.8901L25.3008 16.8616V12.0481H28.1925V8.6748H11.8069V12.0481H14.6986V16.8616L4.67418 32.8901C4.30666 33.5715 4.09644 34.3505 4.09644 35.1802C4.09644 37.8415 6.25384 39.9997 8.91594 39.9997H31.0842C33.7455 39.9997 35.9037 37.8423 35.9037 35.1802C35.9037 34.3505 35.6934 33.5715 35.3252 32.8901ZM12.3481 26.9815L18.0719 17.8292V12.0473H21.9275V17.8292L27.6512 26.9815H12.3481Z" fill="#04686E"/>
</g>
</g>
</g>
<defs>
<clipPath id="clip0_1229_15293">
<rect width="40" height="40" fill="white"/>
</clipPath>
</defs>
</svg>
